<?xml version="1.0" encoding="UTF-8" standalone="no"?>
<!-- Generator: Adobe Illustrator 15.0.0, SVG Export Plug-In . SVG Version: 6.00 Build 0)  -->

<svg
   xmlns:dc="http://purl.org/dc/elements/1.1/"
   xmlns:cc="http://creativecommons.org/ns#"
   xmlns:rdf="http://www.w3.org/1999/02/22-rdf-syntax-ns#"
   xmlns:svg="http://www.w3.org/2000/svg"
   xmlns="http://www.w3.org/2000/svg"
   xmlns:sodipodi="http://sodipodi.sourceforge.net/DTD/sodipodi-0.dtd"
   xmlns:inkscape="http://www.inkscape.org/namespaces/inkscape"
   version="1.1"
   id="Layer_1"
   x="0px"
   y="0px"
   width="595.28px"
   height="841.89px"
   viewBox="0 0 595.28 841.89"
   enable-background="new 0 0 595.28 841.89"
   xml:space="preserve"
   inkscape:version="0.47 r22583"
   sodipodi:docname="Il_capo_architetto.svg"><metadata
   id="metadata9"><rdf:RDF><cc:Work
       rdf:about=""><dc:format>image/svg+xml</dc:format><dc:type
         rdf:resource="http://purl.org/dc/dcmitype/StillImage" /><dc:title></dc:title><dc:creator><cc:Agent><dc:title>Arch. Emilie Rollandin</dc:title></cc:Agent></dc:creator><cc:license
         rdf:resource="http://creativecommons.org/licenses/by/3.0/" /></cc:Work><cc:License
       rdf:about="http://creativecommons.org/licenses/by/3.0/"><cc:permits
         rdf:resource="http://creativecommons.org/ns#Reproduction" /><cc:permits
         rdf:resource="http://creativecommons.org/ns#Distribution" /><cc:requires
         rdf:resource="http://creativecommons.org/ns#Notice" /><cc:requires
         rdf:resource="http://creativecommons.org/ns#Attribution" /><cc:permits
         rdf:resource="http://creativecommons.org/ns#DerivativeWorks" /></cc:License></rdf:RDF></metadata><defs
   id="defs7"><inkscape:perspective
     sodipodi:type="inkscape:persp3d"
     inkscape:vp_x="0 : 420.94501 : 1"
     inkscape:vp_y="0 : 1000 : 0"
     inkscape:vp_z="595.28003 : 420.94501 : 1"
     inkscape:persp3d-origin="297.64001 : 280.63 : 1"
     id="perspective11" /></defs><sodipodi:namedview
   pagecolor="#3f51b5"
   bordercolor="#666666"
   borderopacity="1"
   objecttolerance="10"
   gridtolerance="10"
   guidetolerance="10"
   inkscape:pageopacity="0"
   inkscape:pageshadow="2"
   inkscape:window-width="683"
   inkscape:window-height="488"
   id="namedview5"
   showgrid="false"
   inkscape:zoom="0.28032165"
   inkscape:cx="297.64001"
   inkscape:cy="420.94501"
   inkscape:window-x="0"
   inkscape:window-y="0"
   inkscape:window-maximized="0"
   inkscape:current-layer="Layer_1" />
<path
   fill-rule="evenodd"
   clip-rule="evenodd"
   fill="#3f51b5"
   d="M328.218,95.273c-1.134,9.06-4.65,17.555-4.968,28.286  c7.38,4.546,12.769,12.21,19.876,16.836c5.624,3.664,22.924,9.147,29.812,11.479c9.042,3.022,25.309,3.666,29.827,10.68  c1.306,2.107,0.625,3.879,1.642,6.157c5.818,12.741,10.126,30.119,14.08,44.347c0.564,5.352,1.129,10.707,1.687,16.042  c5.868,22.291,7.54,48.003,13.221,71.889c2.597,10.9,0.042,23.092,2.481,33.632c2.063,8.707-0.634,19.854-0.805,27.578  c-0.551,23.882-0.991,44.771-0.86,67.295c-3.187,1.08-4.417,0.706-4.944,4.562c2.237,2.916,6.75,23.853,4.128,30.626  c-0.759,1.997-3.915,2.89-4.957,4.563c-5.868,9.287-14.915,22.622-28.973,23.703c0.36-5.313,2.96-7.145,4.15-11.461  c1.901-7.228-0.538-17.585-2.529-22.201c-0.81-0.231-1.621-0.466-2.477-0.748c0,0.282,0,0.517,0,0.748  c-4.788,7.725,0.361,18.83-11.571,19.895c-0.184-10.024,0.539-29.007,3.288-37.46c1.132-3.476,3.403-6.708,4.152-10.687  c-0.559,0-1.109,0-1.646,0c-1.539-0.955-4.718-0.834-7.469-0.793c-2.141,2.813-2.635,5.228-2.508,10.725  c-8.974,10.485-6.946,40.716-5.771,59.646c0.25,3.815,2.938,7.854,1.67,12.25c-0.679,2.227-3.521,4.859-4.151,6.858  c0.27,8.683,0.533,17.325,0.837,26.033c0.044,5.236,3.72,9.736,1.645,15.3c-0.452,1.147-2.797,2.104-3.324,3.014  c-1.545,2.816-0.36,6.986-0.823,9.176c-1.635,7.917,3.605,12.581,0.823,20.68c-5.595,16.388-9.67,34.34-15.722,51.219  c-1.394,3.836-4.645,7.75-5.811,11.507c-3.638,11.667,2.884,23.916-0.817,34.414c-2.529,7.203-8.938,7.331-9.111,17.578  c11.231,13.84-3.116,40.876-8.258,52c-2.827,5.957-2.529,10.582-11.628,10.716c-2.272-1.592-5.888-1.592-9.943-1.547  c-1.692,3.086-3.254,8.244-4.15,9.918c-0.814,0.535-1.635,1.077-2.462,1.622c-1.194,3.123,2.684,10.038,0.827,14.461  c-0.381,0.916-2.973,2.708-3.309,3.83c0.291,1.287,0.517,2.583,0.793,3.831c-0.14,0.918-1.313,3.209-1.604,4.582  c-10.922,6.254-49.431,13.003-50.563-5.323c2.87-2.592,2.934-5.672,4.99-9.214c4.628-7.997,8.639-8.923,5.792-20.621  c0.281-4.588,0.573-9.176,0.817-13.751c-1.557-4.543-6.366-6.584-7.449-12.259c1.328-1.031,0.951-0.497,1.673-2.328  c-8.798-5.672-5.531-16.745-9.118-27.496c-3.426-10.336-3.836-24.375-6.635-35.962c-0.265-6.084-0.536-12.248-0.833-18.332  c-2.415-9.876-1.669-22.496-4.124-32.914c-0.277-5.589-0.564-11.214-0.813-16.837c-3.384-10.672-7.805-18.193-10.792-30.573  c-0.264-11.222-0.535-22.436-0.829-33.623c0.293-1.353,1.542-5.123,0.829-7.665c-3.963-14.539-6.397-34.64-10.753-49.706  c-2.604-8.96,0.158-20.766-2.508-29.854c-2.39-8.295-6.11-15.439-9.925-22.146c-2.616-4.661-3.024-12.243-9.927-13.038  c-2.729,1.518-9.07-0.461-13.266-0.727c0.049-29.197-10.558-49.671-16.562-74.217c-0.56-10.183-1.127-20.408-1.669-30.574  c-3.517-15.004-0.361-28.857,3.343-42.834c4.595-17.464,5.185-35.247,9.898-52.002c0.574-4.621,1.11-9.167,1.673-13.768  c3.726-13.065,8.257-34.4,15.77-44.358c6.679-8.913,23.459-8.807,34.745-13.788c7.179-3.147,16.035-5.336,23.19-9.148  c6.075-3.247,12.844-12.932,18.253-17.625c0.158-14.229-3.45-22.42-4.171-34.394c-2.217,0-4.421,0-6.61,0  c-0.817-1.347-1.036-1.293-1.673-3.058c-3.942-4.567-2.371-15.294-0.833-20.648c3.702-1.017,5.327-0.127,5.795-4.601  c-2.857-4.09-0.469-15.835,0.86-19.105c5.027-12.583,17.87-23.527,34.767-24.478c21.072-1.184,37.005,13.273,40.607,29.06  c-0.849,6.625-1.669,13.269-2.474,19.935c5.119,1.543,7.509,2.734,8.258,8.397C337.515,85.25,340.759,95.333,328.218,95.273z   M374.604,265.808c-10.822,22.434-1.927,69.539,3.296,91.037c0,3.336,0,6.585,0,9.939c2.325,9.604,3.066,19.687,6.629,27.528  c0.835,0.285,1.672,0.517,2.509,0.758c0-0.242,0-0.474,0-0.758c0.659-0.901,0.608-1.296,0.805-3.028  c-3.518-5.516,0.88-16.75-0.805-23.749c-0.767-3.059-1.699-8.848-2.509-12.251c0-7.37,0-14.75,0-22.125  c-3.116-13.289-2.712-28.332-5.773-41.31c-1.9-7.939,2.028-19.773-2.484-25.27C375.409,265.97,376.023,266.271,374.604,265.808z   M219.699,274.202c-1.849,5.234-0.722,11.248-2.458,16.876c-0.837,2.603-3.525,6.5-4.13,9.146  c-1.222,5.19,3.455,10.875,1.648,17.623c-2.146,7.876-5.212,26.708-1.648,36.708c0.542,0,1.084,0,1.648,0c0-0.535,0-1.042,0-1.544  c4.622-6.352,4.399-16.394,6.609-25.244c4.289-17.124,8.756-23.416,2.481-42.059c-1.401-4.238-0.09-7.801-2.481-10.676  C220.527,274.395,221.144,274.718,219.699,274.202z M295.908,509.054c-1.084,1.438-1.084,0.62-1.642,3.045  c-7.385,10.12,2.773,25.705,0,36.722c-3.869,15.247,0.445,28.944,4.128,43.585c-0.271,6.083-0.548,12.24-0.819,18.361  c3.091,14.005,0.674,34.467,4.161,50.461c0.83,0,1.641,0,2.434,0c7.896-12.705,3.789-40.791,8.301-56.582  c0.533-1.869,2.611-18.843,2.497-19.153c-0.329-0.77-2.949-1.004-3.312-1.48c-1.309-1.995,0.385-5.252-0.833-6.933  c-1.172-1.634-4.4-1.612-5.799-3.028c-2.345-2.396-4.968-10.754-5.782-13.809c-2.438-8.773,5.872-14.688,7.443-19.875  c1.001-3.267-7.166-25.959-8.292-30.563C297.575,509.532,296.742,509.298,295.908,509.054z"
   id="path3" />
</svg>