<?xml version="1.0" encoding="UTF-8" standalone="no"?>
<!-- Created with Inkscape (http://www.inkscape.org/) -->

<svg
   xmlns:dc="http://purl.org/dc/elements/1.1/"
   xmlns:cc="http://creativecommons.org/ns#"
   xmlns:rdf="http://www.w3.org/1999/02/22-rdf-syntax-ns#"
   xmlns:svg="http://www.w3.org/2000/svg"
   xmlns="http://www.w3.org/2000/svg"
   xmlns:sodipodi="http://sodipodi.sourceforge.net/DTD/sodipodi-0.dtd"
   xmlns:inkscape="http://www.inkscape.org/namespaces/inkscape"
   width="73.212837mm"
   height="73.211983mm"
   viewBox="0 0 73.212837 73.211983"
   version="1.1"
   id="svg8"
   inkscape:version="0.92.2 (5c3e80d, 2017-08-06)"
   sodipodi:docname="mtp2.svg">
  <defs
     id="defs2" />
  <sodipodi:namedview
     id="base"
     pagecolor="#ffffff"
     bordercolor="#666666"
     borderopacity="1.0"
     inkscape:pageopacity="0.0"
     inkscape:pageshadow="2"
     inkscape:zoom="0.35"
     inkscape:cx="143.16247"
     inkscape:cy="196.51415"
     inkscape:document-units="mm"
     inkscape:current-layer="g41"
     showgrid="false"
     fit-margin-top="0"
     fit-margin-left="0"
     fit-margin-right="0"
     fit-margin-bottom="0"
     inkscape:window-width="1366"
     inkscape:window-height="705"
     inkscape:window-x="-8"
     inkscape:window-y="530"
     inkscape:window-maximized="1" />
  <metadata
     id="metadata5">
    <rdf:RDF>
      <cc:Work
         rdf:about="">
        <dc:format>image/svg+xml</dc:format>
        <dc:type
           rdf:resource="http://purl.org/dc/dcmitype/StillImage" />
        <dc:title></dc:title>
      </cc:Work>
    </rdf:RDF>
  </metadata>
  <g
     inkscape:label="Layer 1"
     inkscape:groupmode="layer"
     id="layer1"
     transform="translate(-0.55249429,-0.25506072)">
    <g
       id="g41"
       transform="matrix(3.4315836,0,0,3.4315836,-1438.2089,-215.82085)"
       style="clip-rule:evenodd;fill-rule:evenodd">
      <g
         id="g225"
         transform="matrix(0.125,0,0,0.125,366.15319,58.776159)">
        <path
           id="path221"
           d="m 492.5496,59.632297 h -16.078 c 7.784,-8.534 17.094,-15.63 27.587,-20.701 -4.401,6.507 -8.21,13.436 -11.509,20.701 z m -9.562,28.897 a 144.683,144.683 0 0 1 8.209,-25.938 h -17.265 a 95.927,95.927 0 0 0 -8.545,12.251 96.535,96.535 0 0 0 -6.431,13.687 z m -3.302,28.896003 h -26.146 c 0.085,-4.814 0.677,-9.631 1.438,-14.109 0.592,-3.971003 1.694,-8.027003 2.96,-11.829003 h 24.372 c -1.521,8.365 -2.539,17.066003 -2.624,25.938003 z m -7.022,-57.793003 c 9.394,-10.982 21.494,-19.855 35.033,-25.346 l 0.338,-0.761 c -22.932,0.674 -44.002,10.561 -58.896,25.856 -0.084,0.082 -0.084,0.167 -0.169,0.251 z m -16.755,28.897 h -25.385 c 3.64,-9.631 9.055,-18.419 15.74,-25.938 h 24.032 c -6.178,7.688 -11.001,16.476 -14.387,25.938 z m -5.163,28.896003 c 0.169,-9.04 1.61,-17.743003 4.232,-25.938003 h -25.554 c -1.438,4.224 -2.625,8.788003 -3.301,13.349003 -0.677,3.971 -1.185,8.28 -1.185,12.589 z m 58.05,-57.793003 v -22.052 c -2.454,3.464 -4.822,7.096 -6.938,10.731 -2.031,3.632 -4.145,7.519 -5.924,11.321 z m 0,28.897 h -22.676 c 0,-0.169 0,-0.338 0.082,-0.505 1.863,-8.788 4.824,-17.322 8.379,-25.434 h 14.215 z m 0,28.896003 h -26.062 c 0.084,-8.872 1.1,-17.573003 2.707,-25.938003 h 23.355 z m 19.211,-57.793003 h 16.076 c -7.785,-8.534 -17.176,-15.63 -27.588,-20.701 4.405,6.507 8.209,13.436 11.512,20.701 z m 9.561,28.897 a 144.92,144.92 0 0 0 -8.207,-25.938 h 17.178 a 81.59,81.59 0 0 1 8.545,12.251 c 2.539,4.309 4.74,8.957 6.516,13.687 z m 3.3,28.896003 h 26.146 c -0.086,-4.814 -0.676,-9.631 -1.439,-14.109 -0.592,-3.971003 -1.691,-8.027003 -2.959,-11.829003 h -24.373 c 1.522,8.365 2.539,17.066003 2.625,25.938003 z m 7.024,-57.793003 c -9.395,-10.982 -21.492,-19.855 -35.119,-25.346 l -0.254,-0.761 c 22.934,0.674 44.004,10.562 58.896,25.856 0.084,0.082 0.084,0.167 0.17,0.251 z m 16.754,28.897 h 25.385 c -3.637,-9.631 -9.053,-18.419 -15.738,-25.938 h -24.034 c 6.18,7.688 11.002,16.476 14.387,25.938 z m 5.162,28.896003 c -0.168,-9.04 -1.607,-17.743003 -4.232,-25.938003 h 25.471 c 1.525,4.224 2.709,8.788003 3.387,13.349003 a 86.183,86.183 0 0 1 1.184,12.589 z m -58.049,-57.793003 v -22.052 c 2.453,3.464 4.824,7.096 6.854,10.731 2.117,3.632 4.232,7.519 6.008,11.321 z m 0,28.897 h 22.678 c 0,-0.169 -0.084,-0.338 -0.084,-0.505 -1.947,-8.788 -4.824,-17.322 -8.463,-25.434 h -14.131 z m 0,28.896003 h 26.061 c -0.082,-8.872 -1.1,-17.573003 -2.707,-25.938003 h -23.354 z m -19.209,60.668 h -16.078 c 7.784,8.534 17.094,15.633 27.587,20.701 -4.401,-6.507 -8.21,-13.434 -11.509,-20.701 z m -9.562,-28.895 a 144.698,144.698 0 0 0 8.209,25.937 h -17.265 a 95.916,95.916 0 0 1 -8.545,-12.25 96.64,96.64 0 0 1 -6.431,-13.687 z m -3.302,-28.898 h -26.146 c 0.085,4.816 0.677,9.631 1.438,14.109 0.592,3.971 1.694,8.026 2.96,11.828 h 24.372 c -1.521,-8.362 -2.539,-17.065 -2.624,-25.937 z m -7.022,57.793 c 9.394,10.984 21.494,19.854 35.033,25.349 l 0.338,0.761 c -22.932,-0.677 -44.001,-10.563 -58.896,-25.855 -0.084,-0.085 -0.084,-0.17 -0.169,-0.254 h 23.694 z m -16.755,-28.895 h -25.385 a 84.66,84.66 0 0 0 15.74,25.937 h 24.032 c -6.178,-7.689 -11.001,-16.474 -14.387,-25.937 z m -5.163,-28.898 c 0.169,9.041 1.61,17.744 4.232,25.938 h -25.554 c -1.438,-4.223 -2.625,-8.785 -3.301,-13.349 -0.677,-3.971 -1.185,-8.28 -1.185,-12.589 z m 58.05,57.793 v 22.052 c -2.454,-3.464 -4.822,-7.096 -6.938,-10.729 -2.031,-3.636 -4.145,-7.52 -5.924,-11.323 z m 0,-28.895 h -22.676 c 0,0.167 0,0.336 0.082,0.505 1.863,8.788 4.824,17.322 8.379,25.432 h 14.215 z m 0,-28.898 h -26.062 c 0.084,8.872 1.1,17.575 2.707,25.938 h 23.355 z m 19.211,57.793 h 16.076 c -7.785,8.534 -17.176,15.633 -27.588,20.701 4.405,-6.507 8.209,-13.434 11.512,-20.701 z m 9.561,-28.895 a 144.936,144.936 0 0 1 -8.207,25.937 h 17.178 a 81.582,81.582 0 0 0 8.545,-12.25 88.305,88.305 0 0 0 6.516,-13.687 z m 3.3,-28.898 h 26.146 c -0.086,4.816 -0.676,9.631 -1.439,14.109 -0.592,3.971 -1.691,8.026 -2.959,11.828 h -24.373 c 1.522,-8.362 2.539,-17.065 2.625,-25.937 z m 7.024,57.793 c -9.395,10.984 -21.492,19.854 -35.119,25.349 l -0.254,0.761 c 22.934,-0.677 44.004,-10.563 58.896,-25.855 0.084,-0.085 0.084,-0.17 0.17,-0.254 h -23.693 z m 16.754,-28.895 h 25.385 a 84.596,84.596 0 0 1 -15.738,25.937 h -24.034 c 6.18,-7.689 11.002,-16.474 14.387,-25.937 z m 5.162,-28.898 c -0.168,9.041 -1.607,17.744 -4.232,25.938 h 25.471 c 1.525,-4.223 2.709,-8.785 3.387,-13.349 a 86.183,86.183 0 0 0 1.184,-12.589 z m -58.049,57.793 v 22.052 c 2.453,-3.464 4.824,-7.096 6.854,-10.729 2.117,-3.636 4.232,-7.52 6.008,-11.323 z m 0,-28.895 h 22.678 c 0,0.167 -0.084,0.336 -0.084,0.505 -1.947,8.788 -4.824,17.322 -8.463,25.432 h -14.131 z m 0,-28.898 h 26.061 c -0.082,8.872 -1.1,17.575 -2.707,25.938 h -23.354 z"
           inkscape:connector-curvature="0"
           style="fill:#25b2ee" />
        <path
           id="path219"
           d="m 495.5966,120.2993 c 0,0 -12.1,2.536 -10.747,-9.462 0.254,-5.071 0.931,-8.788 1.945,-14.028003 1.271,-9.885 -2.369,-18.419 -16.668,-18.419 l -31.311,0.085 c 0.848,4.732 0,15.886 11.762,15.886 h 15.486 c 4.145,0 4.062,5.155 0,5.155 h -34.947 c 0,5.746003 0,15.546003 13.37,15.546003 h 15.824 c 6.008,0 6.939,5.237 5.754,5.237 h -34.948 c 0,2.958 1.016,15.886 13.539,15.886 h 48.234 l -7.533,44.442 h 31.143 l 7.953,-44.442 h 26.484 c 12.523,0 33.426,-7.268 35.879,-30.672 2.455,-23.403003 -8.293,-42.922003 -39.686,-42.922003 h -55.933 l -3.129,15.884 h 12.354 c 2.2,0 2.622,1.436 2.284,3.212 z m 40.027,-41.739003 c 17.008,0 24.115,1.861 21.068,24.082003 -3.045,22.139 -19.801,16.984 -29.871,17.658 l 6.348,-39.458003 c 0.252,-1.606 1.439,-2.282 2.455,-2.282 z"
           inkscape:connector-curvature="0"
           style="fill:#ffffff" />
      </g>
    </g>
  </g>
</svg>
