<?xml version="1.0" encoding="utf-8"?>
<!-- Svg Vector Icons : http://www.onlinewebfonts.com/icon -->
<!DOCTYPE svg PUBLIC "-//W3C//DTD SVG 1.1//EN" "http://www.w3.org/Graphics/SVG/1.1/DTD/svg11.dtd">
<svg version="1.1" xmlns="http://www.w3.org/2000/svg" xmlns:xlink="http://www.w3.org/1999/xlink" x="0px" y="0px" viewBox="0 0 1000 1000" enable-background="new 0 0 1000 1000" xml:space="preserve">
<metadata> Svg Vector Icons : http://www.onlinewebfonts.com/icon </metadata>
<g><path d="M804.7,990h-610c-73.7,0-133.6-58.9-133.6-131.2V141.2C61.2,68.9,121.1,10,194.7,10h520.5l223,243v605.9C938.3,931.1,878.4,990,804.7,990L804.7,990z M194.7,33.2c-60.9,0-110.4,48.5-110.4,108v717.6c0,59.6,49.5,108,110.4,108h610c60.9,0,110.4-48.5,110.4-108V262l-210-228.8H194.7L194.7,33.2z"/><path d="M713.8,268.1h-23.2V17.7h23.2V268.1z"/><path d="M920.1,268.1H702.2v-23.2h217.9V268.1z"/><path d="M573,617.9c16.3-18.6,24.5-44.5,24.5-77.9c0-34.3-8-60.7-24-79.3c-10.6-12.4-43.1-27.9-65.6-27.9c-27.3,0-49.4,9.8-66.4,29.5c-17,19.7-25.4,45.4-25.4,77.3c0,32.1,8.3,57.8,24.8,77.2c16.5,19.4,38.1,29,64.8,29C534.3,645.8,556.7,636.5,573,617.9z M28.4,376.7V754h943.2V376.7H28.4z M307.6,652.3c-16.7,12.2-39.8,18.2-69.3,18.2c-10.3,0-22.4-1.4-36.2-4.3c-13.8-2.8-23.8-6.4-30.1-10.6v-38.1c8,6.9,18.7,12.6,32.1,17.1c13.4,4.5,26.1,6.7,38.1,6.7c36.7,0,55-12.9,55-38.8c0-7.2-2-13.8-5.9-19.6c-3.9-5.8-9.3-10.9-16.2-15.4c-6.8-4.5-19.8-11.3-38.6-20.6c-26.2-12.9-43.5-25-51.8-36.1c-8.3-11.1-12.5-23.8-12.5-38.1c0-21.5,8.7-38.6,26.1-51.2c17.4-12.6,39.4-18.9,65.9-18.9c26,0,45,3.1,57.2,9.4v36.5c-15.8-10.8-35.6-16.2-59.7-16.2c-16,0-29,3.3-39,10c-10.1,6.6-15.1,15.9-15.1,27.7c0,10.5,3.5,19,10.5,25.6c7,6.6,22.1,15.6,45.4,26.9c25.6,12.1,43.6,24.3,53.8,36.5c10.2,12.2,15.3,25.8,15.3,41C332.6,622.7,324.2,640.1,307.6,652.3z M638.8,733.4c-8.2,2.6-18.1,3.9-29.6,3.9c-16.2,0-31.5-3.9-45.9-11.7c-14.5-7.8-34.5-26.1-60-55c-35,0.2-63.7-12.1-86.3-37c-22.5-24.9-33.8-56.1-33.8-93.8c0-42,11.4-75.4,34.2-100c22.8-24.7,54-37,93.6-37c35.7,0,64.6,12.1,86.8,36.3c22.2,24.2,33.3,55.7,33.3,94.5c0,34.5-7.8,63.4-23.5,86.8c-15.6,23.4-37.9,38.5-66.7,45.4c14.5,15.6,26.9,26.3,37.1,32c10.2,5.7,21.6,8.6,34.2,8.6c10.4,0,19.2-1.5,26.4-4.5L638.8,733.4L638.8,733.4z M840.1,666.2H702.3V407h33.8v229.5h104L840.1,666.2L840.1,666.2z"/></g>
</svg>