<?xml version="1.0" encoding="UTF-8" standalone="no"?>
<!-- Created with Inkscape (http://www.inkscape.org/) -->

<svg
   xmlns:dc="http://purl.org/dc/elements/1.1/"
   xmlns:cc="http://creativecommons.org/ns#"
   xmlns:rdf="http://www.w3.org/1999/02/22-rdf-syntax-ns#"
   xmlns:svg="http://www.w3.org/2000/svg"
   xmlns="http://www.w3.org/2000/svg"
   xmlns:sodipodi="http://sodipodi.sourceforge.net/DTD/sodipodi-0.dtd"
   xmlns:inkscape="http://www.inkscape.org/namespaces/inkscape"
   width="102.69395mm"
   height="63.741573mm"
   viewBox="0 0 102.69395 63.741573"
   version="1.1"
   id="svg8"
   inkscape:version="0.92.2 (5c3e80d, 2017-08-06)"
   sodipodi:docname="usa_flag.svg">
  <defs
     id="defs2" />
  <sodipodi:namedview
     id="base"
     pagecolor="#ffffff"
     bordercolor="#666666"
     borderopacity="1.0"
     inkscape:pageopacity="0.0"
     inkscape:pageshadow="2"
     inkscape:zoom="1.4"
     inkscape:cx="288.60067"
     inkscape:cy="62.198826"
     inkscape:document-units="mm"
     inkscape:current-layer="layer1"
     showgrid="false"
     fit-margin-top="0"
     fit-margin-left="0"
     fit-margin-right="0"
     fit-margin-bottom="0"
     inkscape:window-width="1366"
     inkscape:window-height="705"
     inkscape:window-x="-8"
     inkscape:window-y="-8"
     inkscape:window-maximized="1" />
  <metadata
     id="metadata5">
    <rdf:RDF>
      <cc:Work
         rdf:about="">
        <dc:format>image/svg+xml</dc:format>
        <dc:type
           rdf:resource="http://purl.org/dc/dcmitype/StillImage" />
        <dc:title></dc:title>
      </cc:Work>
    </rdf:RDF>
  </metadata>
  <g
     inkscape:label="Layer 1"
     inkscape:groupmode="layer"
     id="layer1"
     transform="translate(-0.24677382,0.02108821)">
    <g
       transform="matrix(0.35277777,0,0,-0.35277777,-48.85989,337.73717)"
       inkscape:label="American_Flag"
       id="g3707">
      <g
         transform="scale(1,-1)"
         id="g3709">
        <path
           inkscape:connector-curvature="0"
           id="path3711"
           style="fill:#ffffff;fill-opacity:1;fill-rule:nonzero;stroke:none"
           d="m 430.25098,-776.98828 c 0,0 0,-180.38672 0,-180.38672 0,0 -291.00098,0 -291.00098,0 0,0 0,180.38672 0,180.38672 0,0 291.00098,0 291.00098,0 z" />
        <path
           inkscape:connector-curvature="0"
           id="path3713"
           style="fill:#d2103e;fill-opacity:1;fill-rule:nonzero;stroke:none"
           d="m 430.25098,-943.5127 c 0,0 0,-13.8623 0,-13.8623 0,0 -291.00098,0 -291.00098,0 0,0 0,13.8623 0,13.8623 0,0 291.00098,0 291.00098,0 z" />
        <path
           inkscape:connector-curvature="0"
           id="path3715"
           style="fill:#d2103e;fill-opacity:1;fill-rule:nonzero;stroke:none"
           d="m 430.25098,-915.71729 c 0,0 0,-13.8623 0,-13.8623 0,0 -291.00098,0 -291.00098,0 0,0 0,13.8623 0,13.8623 0,0 291.00098,0 291.00098,0 z" />
        <path
           inkscape:connector-curvature="0"
           id="path3717"
           style="fill:#d2103e;fill-opacity:1;fill-rule:nonzero;stroke:none"
           d="m 430.25098,-888.11108 c 0,0 0,-13.86206 0,-13.86206 0,0 -291.00098,0 -291.00098,0 0,0 0,13.86206 0,13.86206 0,0 291.00098,0 291.00098,0 z" />
        <path
           inkscape:connector-curvature="0"
           id="path3719"
           style="fill:#d2103e;fill-opacity:1;fill-rule:nonzero;stroke:none"
           d="m 430.25098,-860.31567 c 0,0 0,-13.86206 0,-13.86206 0,0 -291.00098,0 -291.00098,0 0,0 0,13.86206 0,13.86206 0,0 291.00098,0 291.00098,0 z" />
        <path
           inkscape:connector-curvature="0"
           id="path3721"
           style="fill:#d2103e;fill-opacity:1;fill-rule:nonzero;stroke:none"
           d="m 430.25098,-832.33105 c 0,0 0,-13.86231 0,-13.86231 0,0 -291.00098,0 -291.00098,0 0,0 0,13.86231 0,13.86231 0,0 291.00098,0 291.00098,0 z" />
        <path
           inkscape:connector-curvature="0"
           id="path3723"
           style="fill:#d2103e;fill-opacity:1;fill-rule:nonzero;stroke:none"
           d="m 430.25098,-804.72461 c 0,0 0,-13.8623 0,-13.8623 0,0 -291.00098,0 -291.00098,0 0,0 0,13.8623 0,13.8623 0,0 291.00098,0 291.00098,0 z" />
        <path
           inkscape:connector-curvature="0"
           id="path3725"
           style="fill:#d2103e;fill-opacity:1;fill-rule:nonzero;stroke:none"
           d="m 430.25098,-776.74023 c 0,0 0,-13.86231 0,-13.86231 0,0 -291.00098,0 -291.00098,0 0,0 0,13.86231 0,13.86231 0,0 291.00098,0 291.00098,0 z" />
        <path
           inkscape:connector-curvature="0"
           id="path3727"
           style="fill:#173a79;fill-opacity:1;fill-rule:nonzero;stroke:none"
           d="m 260.07471,-860.37476 c 0,0 0,-97.00024 0,-97.00024 0,0 -120.82471,0 -120.82471,0 0,0 0,97.00024 0,97.00024 0,0 120.82471,0 120.82471,0 z" />
        <path
           inkscape:connector-curvature="0"
           id="path3729"
           style="fill:#ffffff;fill-opacity:1;fill-rule:nonzero;stroke:none"
           d="m 152.02319,-948.88672 c 0,0 2.94092,0 2.94092,0 0,0 -2.3689,1.77686 -2.3689,1.77686 0,0 0.91895,2.81836 0.91895,2.81836 0,0 -2.35889,-1.73584 -2.35889,-1.73584 0,0 -2.35888,1.73584 -2.35888,1.73584 0,0 0.9292,-2.81836 0.9292,-2.81836 0,0 -2.38941,-1.77686 -2.38941,-1.77686 0,0 2.93067,0 2.93067,0 0,0 0.88842,-2.74682 0.88842,-2.74682 0,0 0.86792,2.74682 0.86792,2.74682 z" />
        <path
           inkscape:connector-curvature="0"
           id="path3731"
           style="fill:#ffffff;fill-opacity:1;fill-rule:nonzero;stroke:none"
           d="m 171.53662,-948.88672 c 0,0 2.94092,0 2.94092,0 0,0 -2.36914,1.77686 -2.36914,1.77686 0,0 0.91894,2.81836 0.91894,2.81836 0,0 -2.35888,-1.73584 -2.35888,-1.73584 0,0 -2.35865,1.73584 -2.35865,1.73584 0,0 0.9292,-2.81836 0.9292,-2.81836 0,0 -2.38964,-1.77686 -2.38964,-1.77686 0,0 2.93066,0 2.93066,0 0,0 0.88843,-2.74682 0.88843,-2.74682 0,0 0.86816,2.74682 0.86816,2.74682 z" />
        <path
           inkscape:connector-curvature="0"
           id="path3733"
           style="fill:#ffffff;fill-opacity:1;fill-rule:nonzero;stroke:none"
           d="m 191.0498,-948.88672 c 0,0 2.94092,0 2.94092,0 0,0 -2.36914,1.77686 -2.36914,1.77686 0,0 0.91895,2.81836 0.91895,2.81836 0,0 -2.35889,-1.73584 -2.35889,-1.73584 0,0 -2.35889,1.73584 -2.35889,1.73584 0,0 0.9292,-2.81836 0.9292,-2.81836 0,0 -2.38916,-1.77686 -2.38916,-1.77686 0,0 2.93067,0 2.93067,0 0,0 0.88818,-2.74682 0.88818,-2.74682 0,0 0.86816,2.74682 0.86816,2.74682 z" />
        <path
           inkscape:connector-curvature="0"
           id="path3735"
           style="fill:#ffffff;fill-opacity:1;fill-rule:nonzero;stroke:none"
           d="m 210.56445,-948.88672 c 0,0 2.94092,0 2.94092,0 0,0 -2.36914,1.77686 -2.36914,1.77686 0,0 0.91895,2.81836 0.91895,2.81836 0,0 -2.35889,-1.73584 -2.35889,-1.73584 0,0 -2.35889,1.73584 -2.35889,1.73584 0,0 0.9292,-2.81836 0.9292,-2.81836 0,0 -2.38916,-1.77686 -2.38916,-1.77686 0,0 2.93067,0 2.93067,0 0,0 0.88818,-2.74682 0.88818,-2.74682 0,0 0.86816,2.74682 0.86816,2.74682 z" />
        <path
           inkscape:connector-curvature="0"
           id="path3737"
           style="fill:#ffffff;fill-opacity:1;fill-rule:nonzero;stroke:none"
           d="m 230.07764,-948.88672 c 0,0 2.94091,0 2.94091,0 0,0 -2.36914,1.77686 -2.36914,1.77686 0,0 0.91895,2.81836 0.91895,2.81836 0,0 -2.35889,-1.73584 -2.35889,-1.73584 0,0 -2.35888,1.73584 -2.35888,1.73584 0,0 0.9292,-2.81836 0.9292,-2.81836 0,0 -2.38916,-1.77686 -2.38916,-1.77686 0,0 2.93066,0 2.93066,0 0,0 0.88818,-2.74682 0.88818,-2.74682 0,0 0.86817,2.74682 0.86817,2.74682 z" />
        <path
           inkscape:connector-curvature="0"
           id="path3739"
           style="fill:#ffffff;fill-opacity:1;fill-rule:nonzero;stroke:none"
           d="m 249.59082,-948.88672 c 0,0 2.94092,0 2.94092,0 0,0 -2.36914,1.77686 -2.36914,1.77686 0,0 0.91894,2.81836 0.91894,2.81836 0,0 -2.35888,-1.73584 -2.35888,-1.73584 0,0 -2.3584,1.73584 -2.3584,1.73584 0,0 0.92871,-2.81836 0.92871,-2.81836 0,0 -2.38916,-1.77686 -2.38916,-1.77686 0,0 2.93066,0 2.93066,0 0,0 0.88819,-2.74682 0.88819,-2.74682 0,0 0.86816,2.74682 0.86816,2.74682 z" />
        <path
           inkscape:connector-curvature="0"
           id="path3741"
           style="fill:#ffffff;fill-opacity:1;fill-rule:nonzero;stroke:none"
           d="m 239.83398,-938.95972 c 0,0 2.94092,0 2.94092,0 0,0 -2.36914,1.77661 -2.36914,1.77661 0,0 0.91895,2.81861 0.91895,2.81861 0,0 -2.35889,-1.73609 -2.35889,-1.73609 0,0 -2.3584,1.73609 -2.3584,1.73609 0,0 0.9292,-2.81861 0.9292,-2.81861 0,0 -2.38965,-1.77661 -2.38965,-1.77661 0,0 2.93067,0 2.93067,0 0,0 0.88818,-2.74682 0.88818,-2.74682 0,0 0.86816,2.74682 0.86816,2.74682 z" />
        <path
           inkscape:connector-curvature="0"
           id="path3743"
           style="fill:#ffffff;fill-opacity:1;fill-rule:nonzero;stroke:none"
           d="m 230.07715,-929.03296 c 0,0 2.94092,0 2.94092,0 0,0 -2.36914,1.77686 -2.36914,1.77686 0,0 0.91894,2.81836 0.91894,2.81836 0,0 -2.3584,-1.73609 -2.3584,-1.73609 0,0 -2.35888,1.73609 -2.35888,1.73609 0,0 0.9292,-2.81836 0.9292,-2.81836 0,0 -2.38965,-1.77686 -2.38965,-1.77686 0,0 2.93066,0 2.93066,0 0,0 0.88867,-2.74683 0.88867,-2.74683 0,0 0.86768,2.74683 0.86768,2.74683 z" />
        <path
           inkscape:connector-curvature="0"
           id="path3745"
           style="fill:#ffffff;fill-opacity:1;fill-rule:nonzero;stroke:none"
           d="m 220.32031,-919.10596 c 0,0 2.94092,0 2.94092,0 0,0 -2.36914,1.77686 -2.36914,1.77686 0,0 0.91943,2.81836 0.91943,2.81836 0,0 -2.35888,-1.73584 -2.35888,-1.73584 0,0 -2.35889,1.73584 -2.35889,1.73584 0,0 0.9292,-2.81836 0.9292,-2.81836 0,0 -2.38965,-1.77686 -2.38965,-1.77686 0,0 2.93066,0 2.93066,0 0,0 0.88868,-2.74682 0.88868,-2.74682 0,0 0.86767,2.74682 0.86767,2.74682 z" />
        <path
           inkscape:connector-curvature="0"
           id="path3747"
           style="fill:#ffffff;fill-opacity:1;fill-rule:nonzero;stroke:none"
           d="m 210.56348,-909.17896 c 0,0 2.94091,0 2.94091,0 0,0 -2.36865,1.77686 -2.36865,1.77686 0,0 0.91895,2.81836 0.91895,2.81836 0,0 -2.35889,-1.73608 -2.35889,-1.73608 0,0 -2.35889,1.73608 -2.35889,1.73608 0,0 0.9292,-2.81836 0.9292,-2.81836 0,0 -2.38965,-1.77686 -2.38965,-1.77686 0,0 2.93067,0 2.93067,0 0,0 0.88867,-2.74682 0.88867,-2.74682 0,0 0.86768,2.74682 0.86768,2.74682 z" />
        <path
           inkscape:connector-curvature="0"
           id="path3749"
           style="fill:#ffffff;fill-opacity:1;fill-rule:nonzero;stroke:none"
           d="m 200.80713,-899.25195 c 0,0 2.94043,0 2.94043,0 0,0 -2.36865,1.77661 -2.36865,1.77661 0,0 0.91894,2.8186 0.91894,2.8186 0,0 -2.35889,-1.73608 -2.35889,-1.73608 0,0 -2.35888,1.73608 -2.35888,1.73608 0,0 0.9292,-2.8186 0.9292,-2.8186 0,0 -2.38965,-1.77661 -2.38965,-1.77661 0,0 2.93066,0 2.93066,0 0,0 0.88867,-2.74707 0.88867,-2.74707 0,0 0.86817,2.74707 0.86817,2.74707 z" />
        <path
           inkscape:connector-curvature="0"
           id="path3751"
           style="fill:#ffffff;fill-opacity:1;fill-rule:nonzero;stroke:none"
           d="m 191.05029,-889.3252 c 0,0 2.94092,0 2.94092,0 0,0 -2.36914,1.77686 -2.36914,1.77686 0,0 0.91895,2.81836 0.91895,2.81836 0,0 -2.35889,-1.73584 -2.35889,-1.73584 0,0 -2.35889,1.73584 -2.35889,1.73584 0,0 0.9292,-2.81836 0.9292,-2.81836 0,0 -2.38965,-1.77686 -2.38965,-1.77686 0,0 2.93116,0 2.93116,0 0,0 0.88818,-2.74682 0.88818,-2.74682 0,0 0.86816,2.74682 0.86816,2.74682 z" />
        <path
           inkscape:connector-curvature="0"
           id="path3753"
           style="fill:#ffffff;fill-opacity:1;fill-rule:nonzero;stroke:none"
           d="m 181.29346,-879.39819 c 0,0 2.94092,0 2.94092,0 0,0 -2.36915,1.77685 -2.36915,1.77685 0,0 0.91895,2.81812 0.91895,2.81812 0,0 -2.35889,-1.73584 -2.35889,-1.73584 0,0 -2.35888,1.73584 -2.35888,1.73584 0,0 0.9292,-2.81812 0.9292,-2.81812 0,0 -2.38916,-1.77685 -2.38916,-1.77685 0,0 2.93066,0 2.93066,0 0,0 0.88818,-2.74683 0.88818,-2.74683 0,0 0.86817,2.74683 0.86817,2.74683 z" />
        <path
           inkscape:connector-curvature="0"
           id="path3755"
           style="fill:#ffffff;fill-opacity:1;fill-rule:nonzero;stroke:none"
           d="m 171.53662,-869.47119 c 0,0 2.94092,0 2.94092,0 0,0 -2.36914,1.77685 -2.36914,1.77685 0,0 0.91894,2.81836 0.91894,2.81836 0,0 -2.35888,-1.73608 -2.35888,-1.73608 0,0 -2.35865,1.73608 -2.35865,1.73608 0,0 0.9292,-2.81836 0.9292,-2.81836 0,0 -2.38964,-1.77685 -2.38964,-1.77685 0,0 2.93066,0 2.93066,0 0,0 0.88843,-2.74707 0.88843,-2.74707 0,0 0.86816,2.74707 0.86816,2.74707 z" />
        <path
           inkscape:connector-curvature="0"
           id="path3757"
           style="fill:#ffffff;fill-opacity:1;fill-rule:nonzero;stroke:none"
           d="m 191.0498,-869.47119 c 0,0 2.94092,0 2.94092,0 0,0 -2.36914,1.77685 -2.36914,1.77685 0,0 0.91895,2.81836 0.91895,2.81836 0,0 -2.35889,-1.73608 -2.35889,-1.73608 0,0 -2.35889,1.73608 -2.35889,1.73608 0,0 0.9292,-2.81836 0.9292,-2.81836 0,0 -2.38916,-1.77685 -2.38916,-1.77685 0,0 2.93067,0 2.93067,0 0,0 0.88818,-2.74707 0.88818,-2.74707 0,0 0.86816,2.74707 0.86816,2.74707 z" />
        <path
           inkscape:connector-curvature="0"
           id="path3759"
           style="fill:#ffffff;fill-opacity:1;fill-rule:nonzero;stroke:none"
           d="m 210.56445,-869.47119 c 0,0 2.94092,0 2.94092,0 0,0 -2.36914,1.77685 -2.36914,1.77685 0,0 0.91895,2.81836 0.91895,2.81836 0,0 -2.35889,-1.73608 -2.35889,-1.73608 0,0 -2.35889,1.73608 -2.35889,1.73608 0,0 0.9292,-2.81836 0.9292,-2.81836 0,0 -2.38916,-1.77685 -2.38916,-1.77685 0,0 2.93067,0 2.93067,0 0,0 0.88818,-2.74707 0.88818,-2.74707 0,0 0.86816,2.74707 0.86816,2.74707 z" />
        <path
           inkscape:connector-curvature="0"
           id="path3761"
           style="fill:#ffffff;fill-opacity:1;fill-rule:nonzero;stroke:none"
           d="m 230.07764,-869.47119 c 0,0 2.94091,0 2.94091,0 0,0 -2.36914,1.77685 -2.36914,1.77685 0,0 0.91895,2.81836 0.91895,2.81836 0,0 -2.35889,-1.73608 -2.35889,-1.73608 0,0 -2.35888,1.73608 -2.35888,1.73608 0,0 0.9292,-2.81836 0.9292,-2.81836 0,0 -2.38916,-1.77685 -2.38916,-1.77685 0,0 2.93066,0 2.93066,0 0,0 0.88818,-2.74707 0.88818,-2.74707 0,0 0.86817,2.74707 0.86817,2.74707 z" />
        <path
           inkscape:connector-curvature="0"
           id="path3763"
           style="fill:#ffffff;fill-opacity:1;fill-rule:nonzero;stroke:none"
           d="m 249.59082,-869.47119 c 0,0 2.94092,0 2.94092,0 0,0 -2.36914,1.77685 -2.36914,1.77685 0,0 0.91894,2.81836 0.91894,2.81836 0,0 -2.35888,-1.73608 -2.35888,-1.73608 0,0 -2.3584,1.73608 -2.3584,1.73608 0,0 0.92871,-2.81836 0.92871,-2.81836 0,0 -2.38916,-1.77685 -2.38916,-1.77685 0,0 2.93066,0 2.93066,0 0,0 0.88819,-2.74707 0.88819,-2.74707 0,0 0.86816,2.74707 0.86816,2.74707 z" />
        <path
           inkscape:connector-curvature="0"
           id="path3765"
           style="fill:#ffffff;fill-opacity:1;fill-rule:nonzero;stroke:none"
           d="m 200.80713,-938.95947 c 0,0 2.94092,0 2.94092,0 0,0 -2.36914,1.77685 -2.36914,1.77685 0,0 0.91894,2.81836 0.91894,2.81836 0,0 -2.3584,-1.73608 -2.3584,-1.73608 0,0 -2.35888,1.73608 -2.35888,1.73608 0,0 0.9292,-2.81836 0.9292,-2.81836 0,0 -2.38965,-1.77685 -2.38965,-1.77685 0,0 2.93066,0 2.93066,0 0,0 0.88867,-2.74683 0.88867,-2.74683 0,0 0.86768,2.74683 0.86768,2.74683 z" />
        <path
           inkscape:connector-curvature="0"
           id="path3767"
           style="fill:#ffffff;fill-opacity:1;fill-rule:nonzero;stroke:none"
           d="m 191.05029,-929.03223 c 0,0 2.94092,0 2.94092,0 0,0 -2.36914,1.77686 -2.36914,1.77686 0,0 0.91895,2.81836 0.91895,2.81836 0,0 -2.35889,-1.73609 -2.35889,-1.73609 0,0 -2.35889,1.73609 -2.35889,1.73609 0,0 0.9292,-2.81836 0.9292,-2.81836 0,0 -2.38965,-1.77686 -2.38965,-1.77686 0,0 2.93116,0 2.93116,0 0,0 0.88818,-2.74682 0.88818,-2.74682 0,0 0.86816,2.74682 0.86816,2.74682 z" />
        <path
           inkscape:connector-curvature="0"
           id="path3769"
           style="fill:#ffffff;fill-opacity:1;fill-rule:nonzero;stroke:none"
           d="m 181.29395,-919.10596 c 0,0 2.94091,0 2.94091,0 0,0 -2.36914,1.77686 -2.36914,1.77686 0,0 0.91895,2.81836 0.91895,2.81836 0,0 -2.35889,-1.73584 -2.35889,-1.73584 0,0 -2.35889,1.73584 -2.35889,1.73584 0,0 0.9292,-2.81836 0.9292,-2.81836 0,0 -2.38916,-1.77686 -2.38916,-1.77686 0,0 2.93067,0 2.93067,0 0,0 0.88818,-2.74682 0.88818,-2.74682 0,0 0.86817,2.74682 0.86817,2.74682 z" />
        <path
           inkscape:connector-curvature="0"
           id="path3771"
           style="fill:#ffffff;fill-opacity:1;fill-rule:nonzero;stroke:none"
           d="m 171.53662,-909.17871 c 0,0 2.94092,0 2.94092,0 0,0 -2.36914,1.77685 -2.36914,1.77685 0,0 0.91943,2.81836 0.91943,2.81836 0,0 -2.35913,-1.73584 -2.35913,-1.73584 0,0 -2.35889,1.73584 -2.35889,1.73584 0,0 0.9292,-2.81836 0.9292,-2.81836 0,0 -2.3894,-1.77685 -2.3894,-1.77685 0,0 2.93066,0 2.93066,0 0,0 0.88843,-2.74683 0.88843,-2.74683 0,0 0.86792,2.74683 0.86792,2.74683 z" />
        <path
           inkscape:connector-curvature="0"
           id="path3773"
           style="fill:#ffffff;fill-opacity:1;fill-rule:nonzero;stroke:none"
           d="m 161.78027,-899.25244 c 0,0 2.94092,0 2.94092,0 0,0 -2.3689,1.77685 -2.3689,1.77685 0,0 0.91895,2.81836 0.91895,2.81836 0,0 -2.35864,-1.73584 -2.35864,-1.73584 0,0 -2.35889,1.73584 -2.35889,1.73584 0,0 0.9292,-2.81836 0.9292,-2.81836 0,0 -2.3894,-1.77685 -2.3894,-1.77685 0,0 2.93066,0 2.93066,0 0,0 0.88843,-2.74683 0.88843,-2.74683 0,0 0.86767,2.74683 0.86767,2.74683 z" />
        <path
           inkscape:connector-curvature="0"
           id="path3775"
           style="fill:#ffffff;fill-opacity:1;fill-rule:nonzero;stroke:none"
           d="m 161.77979,-938.95972 c 0,0 2.94091,0 2.94091,0 0,0 -2.36889,1.77661 -2.36889,1.77661 0,0 0.91894,2.81861 0.91894,2.81861 0,0 -2.35888,-1.73609 -2.35888,-1.73609 0,0 -2.35865,1.73609 -2.35865,1.73609 0,0 0.9292,-2.81861 0.9292,-2.81861 0,0 -2.38965,-1.77661 -2.38965,-1.77661 0,0 2.93067,0 2.93067,0 0,0 0.88843,-2.74682 0.88843,-2.74682 0,0 0.86792,2.74682 0.86792,2.74682 z" />
        <path
           inkscape:connector-curvature="0"
           id="path3777"
           style="fill:#ffffff;fill-opacity:1;fill-rule:nonzero;stroke:none"
           d="m 181.29297,-938.95972 c 0,0 2.94092,0 2.94092,0 0,0 -2.36914,1.77661 -2.36914,1.77661 0,0 0.91943,2.81861 0.91943,2.81861 0,0 -2.35889,-1.73609 -2.35889,-1.73609 0,0 -2.35888,1.73609 -2.35888,1.73609 0,0 0.9292,-2.81861 0.9292,-2.81861 0,0 -2.38965,-1.77661 -2.38965,-1.77661 0,0 2.93066,0 2.93066,0 0,0 0.88867,-2.74682 0.88867,-2.74682 0,0 0.86768,2.74682 0.86768,2.74682 z" />
        <path
           inkscape:connector-curvature="0"
           id="path3779"
           style="fill:#ffffff;fill-opacity:1;fill-rule:nonzero;stroke:none"
           d="m 171.53662,-929.03271 c 0,0 2.94092,0 2.94092,0 0,0 -2.36914,1.77661 -2.36914,1.77661 0,0 0.91894,2.81836 0.91894,2.81836 0,0 -2.35888,-1.73584 -2.35888,-1.73584 0,0 -2.35865,1.73584 -2.35865,1.73584 0,0 0.9292,-2.81836 0.9292,-2.81836 0,0 -2.38964,-1.77661 -2.38964,-1.77661 0,0 2.93066,0 2.93066,0 0,0 0.88843,-2.74708 0.88843,-2.74708 0,0 0.86816,2.74708 0.86816,2.74708 z" />
        <path
           inkscape:connector-curvature="0"
           id="path3781"
           style="fill:#ffffff;fill-opacity:1;fill-rule:nonzero;stroke:none"
           d="m 161.77979,-919.10596 c 0,0 2.94091,0 2.94091,0 0,0 -2.36889,1.77686 -2.36889,1.77686 0,0 0.91894,2.81836 0.91894,2.81836 0,0 -2.35888,-1.73584 -2.35888,-1.73584 0,0 -2.35865,1.73584 -2.35865,1.73584 0,0 0.9292,-2.81836 0.9292,-2.81836 0,0 -2.38965,-1.77686 -2.38965,-1.77686 0,0 2.93067,0 2.93067,0 0,0 0.88843,-2.74682 0.88843,-2.74682 0,0 0.86792,2.74682 0.86792,2.74682 z" />
        <path
           inkscape:connector-curvature="0"
           id="path3783"
           style="fill:#ffffff;fill-opacity:1;fill-rule:nonzero;stroke:none"
           d="m 152.02319,-929.03296 c 0,0 2.94092,0 2.94092,0 0,0 -2.3689,1.77686 -2.3689,1.77686 0,0 0.91895,2.81836 0.91895,2.81836 0,0 -2.35889,-1.73609 -2.35889,-1.73609 0,0 -2.35888,1.73609 -2.35888,1.73609 0,0 0.9292,-2.81836 0.9292,-2.81836 0,0 -2.38941,-1.77686 -2.38941,-1.77686 0,0 2.93067,0 2.93067,0 0,0 0.88842,-2.74683 0.88842,-2.74683 0,0 0.86792,2.74683 0.86792,2.74683 z" />
        <path
           inkscape:connector-curvature="0"
           id="path3785"
           style="fill:#ffffff;fill-opacity:1;fill-rule:nonzero;stroke:none"
           d="m 152.02319,-909.17896 c 0,0 2.94092,0 2.94092,0 0,0 -2.3689,1.77686 -2.3689,1.77686 0,0 0.91895,2.81836 0.91895,2.81836 0,0 -2.35889,-1.73608 -2.35889,-1.73608 0,0 -2.35888,1.73608 -2.35888,1.73608 0,0 0.9292,-2.81836 0.9292,-2.81836 0,0 -2.38941,-1.77686 -2.38941,-1.77686 0,0 2.93067,0 2.93067,0 0,0 0.88842,-2.74682 0.88842,-2.74682 0,0 0.86792,2.74682 0.86792,2.74682 z" />
        <path
           inkscape:connector-curvature="0"
           id="path3787"
           style="fill:#ffffff;fill-opacity:1;fill-rule:nonzero;stroke:none"
           d="m 152.02319,-889.3252 c 0,0 2.94092,0 2.94092,0 0,0 -2.3689,1.77686 -2.3689,1.77686 0,0 0.91895,2.81836 0.91895,2.81836 0,0 -2.35889,-1.73584 -2.35889,-1.73584 0,0 -2.35888,1.73584 -2.35888,1.73584 0,0 0.9292,-2.81836 0.9292,-2.81836 0,0 -2.38941,-1.77686 -2.38941,-1.77686 0,0 2.93067,0 2.93067,0 0,0 0.88842,-2.74682 0.88842,-2.74682 0,0 0.86792,2.74682 0.86792,2.74682 z" />
        <path
           inkscape:connector-curvature="0"
           id="path3789"
           style="fill:#ffffff;fill-opacity:1;fill-rule:nonzero;stroke:none"
           d="m 220.3208,-938.95972 c 0,0 2.94092,0 2.94092,0 0,0 -2.36914,1.77661 -2.36914,1.77661 0,0 0.91894,2.81861 0.91894,2.81861 0,0 -2.35888,-1.73609 -2.35888,-1.73609 0,0 -2.3584,1.73609 -2.3584,1.73609 0,0 0.9292,-2.81861 0.9292,-2.81861 0,0 -2.38965,-1.77661 -2.38965,-1.77661 0,0 2.93066,0 2.93066,0 0,0 0.88819,-2.74682 0.88819,-2.74682 0,0 0.86816,2.74682 0.86816,2.74682 z" />
        <path
           inkscape:connector-curvature="0"
           id="path3791"
           style="fill:#ffffff;fill-opacity:1;fill-rule:nonzero;stroke:none"
           d="m 210.56396,-929.03296 c 0,0 2.94092,0 2.94092,0 0,0 -2.36914,1.77686 -2.36914,1.77686 0,0 0.91895,2.81836 0.91895,2.81836 0,0 -2.3584,-1.73609 -2.3584,-1.73609 0,0 -2.35889,1.73609 -2.35889,1.73609 0,0 0.9292,-2.81836 0.9292,-2.81836 0,0 -2.38965,-1.77686 -2.38965,-1.77686 0,0 2.93067,0 2.93067,0 0,0 0.88867,-2.74683 0.88867,-2.74683 0,0 0.86767,2.74683 0.86767,2.74683 z" />
        <path
           inkscape:connector-curvature="0"
           id="path3793"
           style="fill:#ffffff;fill-opacity:1;fill-rule:nonzero;stroke:none"
           d="m 200.80713,-919.10596 c 0,0 2.94092,0 2.94092,0 0,0 -2.36914,1.77686 -2.36914,1.77686 0,0 0.91894,2.81836 0.91894,2.81836 0,0 -2.3584,-1.73584 -2.3584,-1.73584 0,0 -2.35888,1.73584 -2.35888,1.73584 0,0 0.9292,-2.81836 0.9292,-2.81836 0,0 -2.38965,-1.77686 -2.38965,-1.77686 0,0 2.93066,0 2.93066,0 0,0 0.88867,-2.74682 0.88867,-2.74682 0,0 0.86768,2.74682 0.86768,2.74682 z" />
        <path
           inkscape:connector-curvature="0"
           id="path3795"
           style="fill:#ffffff;fill-opacity:1;fill-rule:nonzero;stroke:none"
           d="m 191.05029,-909.17896 c 0,0 2.94092,0 2.94092,0 0,0 -2.36914,1.77686 -2.36914,1.77686 0,0 0.91943,2.81836 0.91943,2.81836 0,0 -2.35888,-1.73608 -2.35888,-1.73608 0,0 -2.35889,1.73608 -2.35889,1.73608 0,0 0.9292,-2.81836 0.9292,-2.81836 0,0 -2.38965,-1.77686 -2.38965,-1.77686 0,0 2.93067,0 2.93067,0 0,0 0.88867,-2.74682 0.88867,-2.74682 0,0 0.86767,2.74682 0.86767,2.74682 z" />
        <path
           inkscape:connector-curvature="0"
           id="path3797"
           style="fill:#ffffff;fill-opacity:1;fill-rule:nonzero;stroke:none"
           d="m 181.29395,-899.25195 c 0,0 2.94043,0 2.94043,0 0,0 -2.36866,1.77661 -2.36866,1.77661 0,0 0.91895,2.8186 0.91895,2.8186 0,0 -2.35889,-1.73608 -2.35889,-1.73608 0,0 -2.35889,1.73608 -2.35889,1.73608 0,0 0.9292,-2.8186 0.9292,-2.8186 0,0 -2.38964,-1.77661 -2.38964,-1.77661 0,0 2.93066,0 2.93066,0 0,0 0.88867,-2.74707 0.88867,-2.74707 0,0 0.86817,2.74707 0.86817,2.74707 z" />
        <path
           inkscape:connector-curvature="0"
           id="path3799"
           style="fill:#ffffff;fill-opacity:1;fill-rule:nonzero;stroke:none"
           d="m 171.53687,-889.3252 c 0,0 2.94116,0 2.94116,0 0,0 -2.36914,1.77686 -2.36914,1.77686 0,0 0.91894,2.81836 0.91894,2.81836 0,0 -2.35888,-1.73584 -2.35888,-1.73584 0,0 -2.35889,1.73584 -2.35889,1.73584 0,0 0.9292,-2.81836 0.9292,-2.81836 0,0 -2.38941,-1.77686 -2.38941,-1.77686 0,0 2.93067,0 2.93067,0 0,0 0.88843,-2.74682 0.88843,-2.74682 0,0 0.86792,2.74682 0.86792,2.74682 z" />
        <path
           inkscape:connector-curvature="0"
           id="path3801"
           style="fill:#ffffff;fill-opacity:1;fill-rule:nonzero;stroke:none"
           d="m 161.78003,-879.39819 c 0,0 2.94092,0 2.94092,0 0,0 -2.36914,1.77685 -2.36914,1.77685 0,0 0.91919,2.81812 0.91919,2.81812 0,0 -2.35889,-1.73584 -2.35889,-1.73584 0,0 -2.35889,1.73584 -2.35889,1.73584 0,0 0.9292,-2.81812 0.9292,-2.81812 0,0 -2.3894,-1.77685 -2.3894,-1.77685 0,0 2.93066,0 2.93066,0 0,0 0.88843,-2.74683 0.88843,-2.74683 0,0 0.86792,2.74683 0.86792,2.74683 z" />
        <path
           inkscape:connector-curvature="0"
           id="path3803"
           style="fill:#ffffff;fill-opacity:1;fill-rule:nonzero;stroke:none"
           d="m 152.02319,-869.47119 c 0,0 2.94092,0 2.94092,0 0,0 -2.3689,1.77685 -2.3689,1.77685 0,0 0.91895,2.81836 0.91895,2.81836 0,0 -2.35889,-1.73608 -2.35889,-1.73608 0,0 -2.35888,1.73608 -2.35888,1.73608 0,0 0.9292,-2.81836 0.9292,-2.81836 0,0 -2.38941,-1.77685 -2.38941,-1.77685 0,0 2.93067,0 2.93067,0 0,0 0.88842,-2.74707 0.88842,-2.74707 0,0 0.86792,2.74707 0.86792,2.74707 z" />
        <path
           inkscape:connector-curvature="0"
           id="path3805"
           style="fill:#ffffff;fill-opacity:1;fill-rule:nonzero;stroke:none"
           d="m 200.80713,-879.39844 c 0,0 2.94043,0 2.94043,0 0,0 -2.36865,1.77686 -2.36865,1.77686 0,0 0.91894,2.81811 0.91894,2.81811 0,0 -2.35889,-1.73584 -2.35889,-1.73584 0,0 -2.35888,1.73584 -2.35888,1.73584 0,0 0.9292,-2.81811 0.9292,-2.81811 0,0 -2.38965,-1.77686 -2.38965,-1.77686 0,0 2.93066,0 2.93066,0 0,0 0.88867,-2.74707 0.88867,-2.74707 0,0 0.86817,2.74707 0.86817,2.74707 z" />
        <path
           inkscape:connector-curvature="0"
           id="path3807"
           style="fill:#ffffff;fill-opacity:1;fill-rule:nonzero;stroke:none"
           d="m 210.56396,-889.32568 c 0,0 2.94092,0 2.94092,0 0,0 -2.36914,1.77685 -2.36914,1.77685 0,0 0.91895,2.81836 0.91895,2.81836 0,0 -2.35889,-1.73608 -2.35889,-1.73608 0,0 -2.3584,1.73608 -2.3584,1.73608 0,0 0.9292,-2.81836 0.9292,-2.81836 0,0 -2.38965,-1.77685 -2.38965,-1.77685 0,0 2.93067,0 2.93067,0 0,0 0.88818,-2.74683 0.88818,-2.74683 0,0 0.86816,2.74683 0.86816,2.74683 z" />
        <path
           inkscape:connector-curvature="0"
           id="path3809"
           style="fill:#ffffff;fill-opacity:1;fill-rule:nonzero;stroke:none"
           d="m 220.32031,-899.25195 c 0,0 2.94092,0 2.94092,0 0,0 -2.36914,1.77661 -2.36914,1.77661 0,0 0.91895,2.8186 0.91895,2.8186 0,0 -2.35889,-1.73608 -2.35889,-1.73608 0,0 -2.35889,1.73608 -2.35889,1.73608 0,0 0.9292,-2.8186 0.9292,-2.8186 0,0 -2.38916,-1.77661 -2.38916,-1.77661 0,0 2.93066,0 2.93066,0 0,0 0.88819,-2.74707 0.88819,-2.74707 0,0 0.86816,2.74707 0.86816,2.74707 z" />
        <path
           inkscape:connector-curvature="0"
           id="path3811"
           style="fill:#ffffff;fill-opacity:1;fill-rule:nonzero;stroke:none"
           d="m 230.07715,-909.1792 c 0,0 2.94092,0 2.94092,0 0,0 -2.36866,1.77686 -2.36866,1.77686 0,0 0.91895,2.81836 0.91895,2.81836 0,0 -2.35889,-1.73609 -2.35889,-1.73609 0,0 -2.35888,1.73609 -2.35888,1.73609 0,0 0.9292,-2.81836 0.9292,-2.81836 0,0 -2.38965,-1.77686 -2.38965,-1.77686 0,0 2.93066,0 2.93066,0 0,0 0.88867,-2.74707 0.88867,-2.74707 0,0 0.86768,2.74707 0.86768,2.74707 z" />
        <path
           inkscape:connector-curvature="0"
           id="path3813"
           style="fill:#ffffff;fill-opacity:1;fill-rule:nonzero;stroke:none"
           d="m 239.8335,-919.10547 c 0,0 2.94091,0 2.94091,0 0,0 -2.36914,1.77661 -2.36914,1.77661 0,0 0.91944,2.81836 0.91944,2.81836 0,0 -2.35889,-1.73584 -2.35889,-1.73584 0,0 -2.35889,1.73584 -2.35889,1.73584 0,0 0.9292,-2.81836 0.9292,-2.81836 0,0 -2.38965,-1.77661 -2.38965,-1.77661 0,0 2.93067,0 2.93067,0 0,0 0.88867,-2.74707 0.88867,-2.74707 0,0 0.86768,2.74707 0.86768,2.74707 z" />
        <path
           inkscape:connector-curvature="0"
           id="path3815"
           style="fill:#ffffff;fill-opacity:1;fill-rule:nonzero;stroke:none"
           d="m 220.3208,-879.39819 c 0,0 2.94092,0 2.94092,0 0,0 -2.36914,1.77685 -2.36914,1.77685 0,0 0.91943,2.81812 0.91943,2.81812 0,0 -2.35888,-1.73584 -2.35888,-1.73584 0,0 -2.35889,1.73584 -2.35889,1.73584 0,0 0.9292,-2.81812 0.9292,-2.81812 0,0 -2.38965,-1.77685 -2.38965,-1.77685 0,0 2.93066,0 2.93066,0 0,0 0.88868,-2.74683 0.88868,-2.74683 0,0 0.86767,2.74683 0.86767,2.74683 z" />
        <path
           inkscape:connector-curvature="0"
           id="path3817"
           style="fill:#ffffff;fill-opacity:1;fill-rule:nonzero;stroke:none"
           d="m 230.07764,-889.3252 c 0,0 2.94091,0 2.94091,0 0,0 -2.36914,1.77686 -2.36914,1.77686 0,0 0.91895,2.81836 0.91895,2.81836 0,0 -2.35889,-1.73584 -2.35889,-1.73584 0,0 -2.35888,1.73584 -2.35888,1.73584 0,0 0.9292,-2.81836 0.9292,-2.81836 0,0 -2.38916,-1.77686 -2.38916,-1.77686 0,0 2.93066,0 2.93066,0 0,0 0.88818,-2.74682 0.88818,-2.74682 0,0 0.86817,2.74682 0.86817,2.74682 z" />
        <path
           inkscape:connector-curvature="0"
           id="path3819"
           style="fill:#ffffff;fill-opacity:1;fill-rule:nonzero;stroke:none"
           d="m 239.83398,-899.25195 c 0,0 2.94092,0 2.94092,0 0,0 -2.36865,1.77661 -2.36865,1.77661 0,0 0.91895,2.8186 0.91895,2.8186 0,0 -2.35889,-1.73608 -2.35889,-1.73608 0,0 -2.35889,1.73608 -2.35889,1.73608 0,0 0.9292,-2.8186 0.9292,-2.8186 0,0 -2.38965,-1.77661 -2.38965,-1.77661 0,0 2.93067,0 2.93067,0 0,0 0.88867,-2.74707 0.88867,-2.74707 0,0 0.86767,2.74707 0.86767,2.74707 z" />
        <path
           inkscape:connector-curvature="0"
           id="path3821"
           style="fill:#ffffff;fill-opacity:1;fill-rule:nonzero;stroke:none"
           d="m 239.83398,-879.39819 c 0,0 2.94092,0 2.94092,0 0,0 -2.36865,1.77685 -2.36865,1.77685 0,0 0.91895,2.81812 0.91895,2.81812 0,0 -2.35889,-1.73584 -2.35889,-1.73584 0,0 -2.35889,1.73584 -2.35889,1.73584 0,0 0.9292,-2.81812 0.9292,-2.81812 0,0 -2.38965,-1.77685 -2.38965,-1.77685 0,0 2.93067,0 2.93067,0 0,0 0.88867,-2.74683 0.88867,-2.74683 0,0 0.86767,2.74683 0.86767,2.74683 z" />
        <path
           inkscape:connector-curvature="0"
           id="path3823"
           style="fill:#ffffff;fill-opacity:1;fill-rule:nonzero;stroke:none"
           d="m 249.59082,-929.03296 c 0,0 2.94092,0 2.94092,0 0,0 -2.36914,1.77686 -2.36914,1.77686 0,0 0.91894,2.81836 0.91894,2.81836 0,0 -2.35888,-1.73609 -2.35888,-1.73609 0,0 -2.3584,1.73609 -2.3584,1.73609 0,0 0.92871,-2.81836 0.92871,-2.81836 0,0 -2.38916,-1.77686 -2.38916,-1.77686 0,0 2.93066,0 2.93066,0 0,0 0.88819,-2.74683 0.88819,-2.74683 0,0 0.86816,2.74683 0.86816,2.74683 z" />
        <path
           inkscape:connector-curvature="0"
           id="path3825"
           style="fill:#ffffff;fill-opacity:1;fill-rule:nonzero;stroke:none"
           d="m 249.59082,-909.17896 c 0,0 2.94092,0 2.94092,0 0,0 -2.36914,1.77686 -2.36914,1.77686 0,0 0.91894,2.81836 0.91894,2.81836 0,0 -2.35888,-1.73608 -2.35888,-1.73608 0,0 -2.3584,1.73608 -2.3584,1.73608 0,0 0.9292,-2.81836 0.9292,-2.81836 0,0 -2.38965,-1.77686 -2.38965,-1.77686 0,0 2.93066,0 2.93066,0 0,0 0.88819,-2.74682 0.88819,-2.74682 0,0 0.86816,2.74682 0.86816,2.74682 z" />
        <path
           inkscape:connector-curvature="0"
           id="path3827"
           style="fill:#ffffff;fill-opacity:1;fill-rule:nonzero;stroke:none"
           d="m 249.59082,-889.3252 c 0,0 2.94092,0 2.94092,0 0,0 -2.36914,1.77686 -2.36914,1.77686 0,0 0.91894,2.81836 0.91894,2.81836 0,0 -2.35888,-1.73584 -2.35888,-1.73584 0,0 -2.3584,1.73584 -2.3584,1.73584 0,0 0.92871,-2.81836 0.92871,-2.81836 0,0 -2.38916,-1.77686 -2.38916,-1.77686 0,0 2.93066,0 2.93066,0 0,0 0.88819,-2.74682 0.88819,-2.74682 0,0 0.86816,2.74682 0.86816,2.74682 z" />
        <path
           inkscape:connector-curvature="0"
           id="path3829"
           style="fill:none;stroke:#231f20;stroke-width:0.10001;stroke-linecap:butt;stroke-linejoin:miter;stroke-miterlimit:4;stroke-dasharray:none;stroke-opacity:1"
           d="m 430.25098,-776.98828 c 0,0 0,-180.38672 0,-180.38672 0,0 -291.00098,0 -291.00098,0 0,0 0,180.38672 0,180.38672 0,0 291.00098,0 291.00098,0 z" />
      </g>
    </g>
  </g>
</svg>
