<?xml version="1.0" encoding="UTF-8"?><!DOCTYPE svg PUBLIC "-//W3C//DTD SVG 1.1//EN" "http://www.w3.org/Graphics/SVG/1.1/DTD/svg11.dtd"><svg xmlns="http://www.w3.org/2000/svg" xmlns:xlink="http://www.w3.org/1999/xlink"><defs><path d="M1.253 280.732l1.605-3.131 99.353-188.518-44.15-83.475C54.392-1.283 45.074.474 43.87 8.188L1.253 280.732z" id="firebase-a"/><filter x="-50%" y="-50%" width="200%" height="200%" filterUnits="objectBoundingBox" id="firebase-b"><feGaussianBlur stdDeviation="17.5" in="SourceAlpha" result="shadowBlurInner1"/><feOffset in="shadowBlurInner1" result="shadowOffsetInner1"/><feComposite in="shadowOffsetInner1" in2="SourceAlpha" operator="arithmetic" k2="-1" k3="1" result="shadowInnerInner1"/><feColorMatrix values="0 0 0 0 0 0 0 0 0 0 0 0 0 0 0 0 0 0 0.06 0" in="shadowInnerInner1"/></filter><path d="M134.417 148.974l32.039-32.812-32.039-61.007c-3.042-5.791-10.433-6.398-13.443-.59l-17.705 34.109-.53 1.744 31.678 58.556z" id="firebase-c"/><filter x="-50%" y="-50%" width="200%" height="200%" filterUnits="objectBoundingBox" id="firebase-d"><feGaussianBlur stdDeviation="3.5" in="SourceAlpha" result="shadowBlurInner1"/><feOffset dx="1" dy="-9" in="shadowBlurInner1" result="shadowOffsetInner1"/><feComposite in="shadowOffsetInner1" in2="SourceAlpha" operator="arithmetic" k2="-1" k3="1" result="shadowInnerInner1"/><feColorMatrix values="0 0 0 0 0 0 0 0 0 0 0 0 0 0 0 0 0 0 0.09 0" in="shadowInnerInner1"/></filter><linearGradient id="linkedin-a" y2="425.4" gradientUnits="userSpaceOnUse" x2="-395.85" gradientTransform="matrix(-.50335 0 0 .50335 -148.18 -158.802)" y1="274.71" x1="-344.15"><stop stop-color="#FFF" offset="0"/><stop stop-color="#FFF" stop-opacity="0" offset="1"/></linearGradient><clipPath id="mssharepoint-a"><path d="M0 60h324V0H0z"/></clipPath><clipPath id="msword-a"><path d="M0 595.275h841.89V0H0z"/></clipPath><linearGradient id="node-b" y2="105.422" x2="32.862" y1="21.346" x1="79.823" gradientTransform="scale(.93681 1.06745)" gradientUnits="userSpaceOnUse"><stop offset="0%" stop-color="#41873F"/><stop offset="32.88%" stop-color="#418B3D"/><stop offset="63.52%" stop-color="#419637"/><stop offset="93.19%" stop-color="#3FA92D"/><stop offset="100%" stop-color="#3FAE2A"/></linearGradient><path d="M57.903 1.85a5.957 5.957 0 0 0-5.894 0L3.352 29.933c-1.85 1.04-2.89 3.005-2.89 5.085v56.286c0 2.08 1.156 4.045 2.89 5.085l48.657 28.085a5.957 5.957 0 0 0 5.894 0l48.658-28.085c1.849-1.04 2.89-3.005 2.89-5.085V35.019c0-2.08-1.157-4.045-2.89-5.085L57.903 1.85z" id="node-a"/><linearGradient id="node-d" y2="-19.865" x2="184.674" y1="64.593" x1="51.369" gradientTransform="scale(.92602 1.0799)" gradientUnits="userSpaceOnUse"><stop offset="13.76%" stop-color="#41873F"/><stop offset="40.32%" stop-color="#54A044"/><stop offset="71.36%" stop-color="#66B848"/><stop offset="90.81%" stop-color="#6CC04A"/></linearGradient><linearGradient id="node-e" y2="1.397" x2="60.6" y1="1.397" x1="5.443" gradientTransform="scale(1.633 .61237)" gradientUnits="userSpaceOnUse"><stop offset="9.192%" stop-color="#6CC04A"/><stop offset="28.64%" stop-color="#66B848"/><stop offset="59.68%" stop-color="#54A044"/><stop offset="86.24%" stop-color="#41873F"/></linearGradient><linearGradient id="node-f" y2="66.989" x2="120.279" y1="66.989" x1="-1.421" gradientTransform="scale(.92514 1.08092)" gradientUnits="userSpaceOnUse"><stop offset="9.192%" stop-color="#6CC04A"/><stop offset="28.64%" stop-color="#66B848"/><stop offset="59.68%" stop-color="#54A044"/><stop offset="86.24%" stop-color="#41873F"/></linearGradient><linearGradient id="node-g" y2="68.363" x2="169.633" y1="68.363" x1="118.038" gradientTransform="scale(.65465 1.52754)" gradientUnits="userSpaceOnUse"><stop offset="9.192%" stop-color="#6CC04A"/><stop offset="28.64%" stop-color="#66B848"/><stop offset="59.68%" stop-color="#54A044"/><stop offset="86.24%" stop-color="#41873F"/></linearGradient><linearGradient id="node-h" y2="150.752" x2="87.897" y1="150.752" x1="-1.039" gradientTransform="scale(1.26598 .7899)" gradientUnits="userSpaceOnUse"><stop offset="9.192%" stop-color="#6CC04A"/><stop offset="28.64%" stop-color="#66B848"/><stop offset="59.68%" stop-color="#54A044"/><stop offset="86.24%" stop-color="#41873F"/></linearGradient><linearGradient id="node-i" y2="216.514" x2="46.004" y1="37.182" x1="100.854" gradientTransform="scale(1.26598 .7899)" gradientUnits="userSpaceOnUse"><stop offset="0%" stop-color="#41873F"/><stop offset="32.88%" stop-color="#418B3D"/><stop offset="63.52%" stop-color="#419637"/><stop offset="93.19%" stop-color="#3FA92D"/><stop offset="100%" stop-color="#3FAE2A"/></linearGradient></defs><symbol id="angular" viewBox="0 0 256 272" preserveAspectRatio="xMidYMid"><path d="M.1 45.522L125.908.697l129.196 44.028-20.919 166.45-108.277 59.966-106.583-59.169L.1 45.522z" fill="#E23237"/><path d="M255.104 44.725L125.908.697v270.444l108.277-59.866 20.919-166.55z" fill="#B52E31"/><path d="M126.107 32.274L47.714 206.693l29.285-.498 15.739-39.347h70.325l17.233 39.845 27.99.498-82.179-174.917zm.2 55.882l26.496 55.383h-49.806l23.31-55.383z" fill="#FFF"/></symbol><symbol id="britain" viewBox="0 0 512.002 512.002"><path d="M503.172 423.725H8.828A8.829 8.829 0 0 1 0 414.897V97.104a8.829 8.829 0 0 1 8.828-8.828h494.345a8.829 8.829 0 0 1 8.828 8.828v317.793a8.83 8.83 0 0 1-8.829 8.828z" fill="#41479b"/><path d="M512 97.104a8.829 8.829 0 0 0-8.828-8.828h-39.495l-163.54 107.147V88.276h-88.276v107.147L48.322 88.276H8.828A8.829 8.829 0 0 0 0 97.104v22.831l140.309 91.927H0v88.276h140.309L0 392.066v22.831a8.829 8.829 0 0 0 8.828 8.828h39.495l163.54-107.147v107.147h88.276V316.578l163.54 107.147h39.495a8.829 8.829 0 0 0 8.828-8.828v-22.831l-140.309-91.927H512v-88.276H371.691L512 119.935V97.104z" fill="#f5f5f5"/><g fill="#ff4b55"><path d="M512 229.518H282.483V88.276h-52.966v141.242H0v52.965h229.517v141.242h52.966V282.483H512z"/><path d="M178.948 300.138L.25 416.135c.625 4.263 4.14 7.59 8.577 7.59h12.159l190.39-123.586h-32.428v-.001zM346.388 300.138H313.96l190.113 123.404c4.431-.472 7.928-4.09 7.928-8.646v-7.258l-165.613-107.5zM0 106.849l161.779 105.014h32.428L5.143 89.137C2.123 90.54 0 93.555 0 97.104v9.745zM332.566 211.863L511.693 95.586c-.744-4.122-4.184-7.309-8.521-7.309h-12.647L300.138 211.863h32.428z"/></g></symbol><symbol id="css3" viewBox="85.5 210.272 437.29 491.728"><title>CSS3 Logo</title><path fill="#1572B6" d="M128.668 652.845L89.21 210.272h433.58l-39.5 442.503L305.735 702z"/><path fill="#33A9DC" d="M306 664.375l143.474-39.776 33.755-378.14H306z"/><path fill="#FFF" d="M167.739 293.569l-.308 54.766H390.34l-.08 35.375H167.203l-.161 54.766h222.909l-.293 62.462-84.061 29.75-83.639-29.75.063-27.087h-54.765l-.251 65.719 138.353 49.289 138.877-49.289.467-98.873.141-19.834.568-127.292-277.672-.002z"/></symbol><symbol id="facebook" viewBox="88.428 12.828 107.543 207.085"><path d="M158.232 219.912v-94.461h31.707l4.747-36.813h-36.454V65.134c0-10.658 2.96-17.922 18.245-17.922l19.494-.009V14.278c-3.373-.447-14.944-1.449-28.406-1.449-28.106 0-47.348 17.155-47.348 48.661v27.149H88.428v36.813h31.788v94.461l38.016-.001z" fill="#3c5a9a"/></symbol><symbol id="firebase" viewBox="0 0 256 351" preserveAspectRatio="xMidYMid"><path d="M0 282.998l2.123-2.972L102.527 89.512l.212-2.017L58.48 4.358C54.77-2.606 44.33-.845 43.114 6.951L0 282.998z" fill="#FFC24A"/><use fill="#FFA712" fill-rule="evenodd" xlink:href="#firebase-a"/><use filter="url(#firebase-b)" xlink:href="#firebase-a"/><path d="M135.005 150.38l32.955-33.75-32.965-62.93c-3.129-5.957-11.866-5.975-14.962 0L102.42 87.287v2.86l32.584 60.233z" fill="#F4BD62"/><use fill="#FFA50E" fill-rule="evenodd" xlink:href="#firebase-c"/><use filter="url(#firebase-d)" xlink:href="#firebase-c"/><path fill="#F6820C" d="M0 282.998l.962-.968 3.496-1.42 128.477-128 1.628-4.431-32.05-61.074z"/><path d="M139.121 347.551l116.275-64.847-33.204-204.495c-1.039-6.398-8.888-8.927-13.468-4.34L0 282.998l115.608 64.548a24.126 24.126 0 0 0 23.513.005" fill="#FDE068"/><path d="M254.354 282.16L221.402 79.218c-1.03-6.35-7.558-8.977-12.103-4.424L1.29 282.6l114.339 63.908a23.943 23.943 0 0 0 23.334.006l115.392-64.355z" fill="#FCCA3F"/><path d="M139.12 345.64a24.126 24.126 0 0 1-23.512-.005L.931 282.015l-.93.983 115.607 64.548a24.126 24.126 0 0 0 23.513.005l116.275-64.847-.285-1.752-115.99 64.689z" fill="#EEAB37"/></symbol><symbol id="france" viewBox="0 0 512 512"><path d="M170.667 423.721H8.828A8.829 8.829 0 0 1 0 414.893V97.1a8.829 8.829 0 0 1 8.828-8.828h161.839v335.449z" fill="#41479b"/><path fill="#f5f5f5" d="M170.67 88.277h170.67v335.45H170.67z"/><path d="M503.172 423.721H341.333V88.273h161.839A8.829 8.829 0 0 1 512 97.101v317.793a8.827 8.827 0 0 1-8.828 8.827z" fill="#ff4b55"/></symbol><symbol id="git" viewBox="0 0 256 256" preserveAspectRatio="xMidYMid"><path d="M251.172 116.594L139.4 4.828c-6.433-6.437-16.873-6.437-23.314 0l-23.21 23.21 29.443 29.443c6.842-2.312 14.688-.761 20.142 4.693 5.48 5.489 7.02 13.402 4.652 20.266l28.375 28.376c6.865-2.365 14.786-.835 20.269 4.657 7.663 7.66 7.663 20.075 0 27.74-7.665 7.666-20.08 7.666-27.749 0-5.764-5.77-7.188-14.235-4.27-21.336l-26.462-26.462-.003 69.637a19.82 19.82 0 0 1 5.188 3.71c7.663 7.66 7.663 20.076 0 27.747-7.665 7.662-20.086 7.662-27.74 0-7.663-7.671-7.663-20.086 0-27.746a19.654 19.654 0 0 1 6.421-4.281V94.196a19.378 19.378 0 0 1-6.421-4.281c-5.806-5.798-7.202-14.317-4.227-21.446L81.47 39.442l-76.64 76.635c-6.44 6.443-6.44 16.884 0 23.322l111.774 111.768c6.435 6.438 16.873 6.438 23.316 0l111.251-111.249c6.438-6.44 6.438-16.887 0-23.324" fill="#DE4C36"/></symbol><symbol id="github"><path d="M512 0C229.25 0 0 229.25 0 512c0 226.25 146.688 418.125 350.156 485.812 25.594 4.688 34.938-11.125 34.938-24.625 0-12.188-.469-52.562-.719-95.312C242 908.812 211.906 817.5 211.906 817.5c-23.312-59.125-56.844-74.875-56.844-74.875-46.531-31.75 3.53-31.125 3.53-31.125 51.406 3.562 78.47 52.75 78.47 52.75 45.688 78.25 119.875 55.625 149 42.5 4.654-33 17.904-55.625 32.5-68.375-113.656-12.937-233.218-56.875-233.218-253.063 0-55.938 19.969-101.562 52.656-137.406-5.219-13-22.844-65.094 5.062-135.562 0 0 42.938-13.75 140.812 52.5 40.812-11.406 84.594-17.031 128.125-17.219 43.5.188 87.312 5.875 128.188 17.281 97.688-66.312 140.688-52.5 140.688-52.5 28 70.531 10.375 122.562 5.125 135.5 32.812 35.844 52.625 81.469 52.625 137.406 0 196.688-119.75 240-233.812 252.688 18.438 15.875 34.75 47 34.75 94.75 0 68.438-.688 123.625-.688 140.5 0 13.625 9.312 29.562 35.25 24.562C877.438 930 1024 738.125 1024 512 1024 229.25 794.75 0 512 0z"/></symbol><symbol id="gulp" viewBox="0 0 43.388958 96.356117"><path d="M33.475 93.451l.925-15.404 2.552-4.358s-5.81 2.377-15.536 2.377c-9.727 0-15.449-2.333-15.449-2.333l2.86 4.754L9.84 93.45c0 1.605 5.29 2.905 11.818 2.905 6.526 0 11.817-1.3 11.817-2.905M30.56 21.514l1.94-7.67L43.245 2.537 40.413.125 29.036 12.17l-2.253 9.163a150.952 150.952 0 0 0-5.088-.084C9.713 21.249 0 22.614 0 24.299c0 1.684 9.713 3.049 21.695 3.049 11.981 0 21.694-1.365 21.694-3.05 0-1.24-5.268-2.307-12.83-2.784" fill="#d34a47"/><path d="M29.43 25.81s-.42.094-1.656.1c-1.237.004-2.115-.009-2.464-.327a.552.552 0 0 1-.145-.37c0-.22.156-.349.354-.43l.187.294c-.081.028-.128.062-.128.097 0 .166 1.264.28 2.232.268.968-.012 2.137-.092 2.138-.256 0-.05-.088-.096-.242-.133l.186-.291c.25.077.47.228.47.488-.003.443-.566.51-.932.56" fill="#fff"/><path d="M43.224 2.56c.27-.312-.14-1.11-.916-1.783-.776-.672-1.624-.964-1.895-.652-.27.312.14 1.11.916 1.782.776.673 1.625.965 1.895.653M32.958 55.824c-.254-2.45 5.36-5.999 3.92-6.112-3.103.177-4.646 3.635-6.207 7.256-.572 1.327-2.529 6.986-3.812 6.29-1.283-.697 1.664-5.35 2.49-8.114-.954.698-4.448 3.414-5.349.87-1.448 1.23-4.542 1.897-4.193-1.333-.77 1.364-2.499 3.269-4.574 2.477-2.725-1.039 1.579-9.72 2.65-9.282 1.07.438-.217 2.415-.554 3.183-.74 1.69-1.597 3.815-1.025 4.25.98.745 3.646-2.819 3.705-2.897.499-.66 1.92-4.969 3.064-4.474 1.145.495-2.856 6.185-1.36 7.314.302.228 1.536-.14 2.287-.953.486-.525.319-1.69 1.938-5.551 1.62-3.862 3.063-8.672 4.174-8.305 1.11.366.195 2.834-.203 3.755-1.87 4.319-5.103 11.454-3.579 10.914 1.525-.54 2.32-.572 3.812-2.32 1.493-1.746 1.425-4.624 2.42-4.563.995.061.828.984.587 1.687.98-1.121 4.643-3.482 5.527-1.144 1.048 2.768-5.241 6.766-3.673 6.562 1.529-.198 4.006-1.767 5.063-3.194l2.911-26.17s-2.93 2.425-21.564 2.425C2.778 28.395.152 26.02.152 26.02L2.63 49.908c1.315-3.739 4.439-11.3 9.363-11.047 2.24.115 5.23 4.428 2.668 4.574-1.084.062-1.194-2.152-2.478-2.478-.926-.234-2.216.519-3.05 1.335-1.662 1.627-5.237 8.045-4.764 11.245.602 4.08 5.63-1.417 6.48-3.05.6-1.15 1.004-4.556 2.314-4.198 1.31.357-.114 3.873-1.064 6.98-1.067 3.49-1.628 7.172-2.965 6.748-1.338-.423.84-4.928.762-5.718-1.257 1.16-3.573 4.097-6.536 2.643l1.539 14.834s4.09 3.232 16.413 3.232c12.322 0 16.564-3.182 16.564-3.182l1.911-17.18c-1.563 1.522-6.512 4.226-6.829 1.178" fill="#d34a47"/></symbol><symbol id="javascript" viewBox="0 0 256 256" preserveAspectRatio="xMidYMid"><path d="M0 0h256v256H0V0z" fill="#F7DF1E"/><path d="M67.312 213.932l19.59-11.856c3.78 6.701 7.218 12.371 15.465 12.371 7.905 0 12.89-3.092 12.89-15.12v-81.798h24.057v82.138c0 24.917-14.606 36.259-35.916 36.259-19.245 0-30.416-9.967-36.087-21.996M152.381 211.354l19.588-11.341c5.157 8.421 11.859 14.607 23.715 14.607 9.969 0 16.325-4.984 16.325-11.858 0-8.248-6.53-11.17-17.528-15.98l-6.013-2.58c-17.357-7.387-28.87-16.667-28.87-36.257 0-18.044 13.747-31.792 35.228-31.792 15.294 0 26.292 5.328 34.196 19.247L210.29 147.43c-4.125-7.389-8.591-10.31-15.465-10.31-7.046 0-11.514 4.468-11.514 10.31 0 7.217 4.468 10.14 14.778 14.608l6.014 2.577c20.45 8.765 31.963 17.7 31.963 37.804 0 21.654-17.012 33.51-39.867 33.51-22.339 0-36.774-10.654-43.819-24.574"/></symbol><symbol id="latex" viewBox="0 0 163.418 60.510601"><path d="M35.834 28.877h-1.64c-.657 6.694-1.576 14.832-13.127 14.832h-5.316c-3.084 0-3.216-.459-3.216-2.625V6.234c0-2.23 0-3.15 6.17-3.15h2.165V1.117c-2.362.197-8.27.197-10.96.197-2.56 0-7.679 0-9.91-.197v1.969h1.51c5.053 0 5.184.722 5.184 3.084v34.456c0 2.362-.131 3.084-5.185 3.084H0v2.035h34.062l1.772-16.867z"/><path d="M34.718 1.05C34.456.263 34.324 0 33.471 0c-.853 0-1.05.263-1.312 1.05L21.592 27.827c-.46 1.116-1.247 3.15-5.316 3.15v1.641H26.45v-1.64c-2.035 0-3.282-.92-3.282-2.232 0-.328.066-.46.197-.919l2.232-5.644H38.59l2.625 6.694c.132.263.263.59.263.788 0 1.312-2.494 1.312-3.74 1.312v1.641h12.928v-1.64h-.919c-3.084 0-3.412-.46-3.872-1.773L34.718 1.05zm-2.625 4.66l5.841 14.832H26.252l5.84-14.832z"/><path d="M87.288 1.51H47.319l-1.181 14.7h1.575c.919-10.566 1.903-12.732 11.813-12.732 1.181 0 2.888 0 3.544.132 1.378.262 1.378.984 1.378 2.494v34.455c0 2.232 0 3.15-6.89 3.15h-2.626v2.035c2.69-.197 9.32-.197 12.338-.197 3.02 0 9.78 0 12.47.197v-2.035h-2.625c-6.891 0-6.891-.918-6.891-3.15V6.104c0-1.313 0-2.232 1.181-2.494.722-.132 2.494-.132 3.741-.132 9.844 0 10.829 2.166 11.748 12.733h1.64L87.288 1.509z"/><path d="M122.465 43.644h-1.64c-1.641 10.041-3.15 14.832-14.374 14.832h-8.663c-3.084 0-3.216-.46-3.216-2.625V38.393h5.841c6.367 0 7.088 2.1 7.088 7.68h1.641V28.745h-1.64c0 5.578-.722 7.613-7.089 7.613h-5.84V20.673c0-2.165.13-2.625 3.215-2.625h8.4c10.042 0 11.749 3.61 12.799 12.732h1.64l-1.837-14.7H82.037v1.968h1.51c5.053 0 5.184.722 5.184 3.085V55.39c0 2.363-.13 3.085-5.184 3.085h-1.51v2.035h37.672l2.756-16.867z"/><path d="M142.22 20.476l8.99-13.125c1.38-2.1 3.61-4.2 9.452-4.266v-1.97h-15.62v1.97c2.625.065 4.069 1.51 4.069 3.019 0 .656-.132.787-.59 1.509l-7.483 11.026-8.4-12.601c-.132-.197-.46-.722-.46-.985 0-.787 1.444-1.903 4.2-1.968v-1.97c-2.23.198-7.022.198-9.516.198-2.034 0-6.103-.066-8.532-.197v1.969h1.247c3.61 0 4.857.459 6.104 2.297l12.01 18.18-10.697 15.816c-.92 1.312-2.888 4.331-9.451 4.331v2.035h15.62v-2.035c-3.02-.065-4.135-1.837-4.135-3.019 0-.59.197-.853.656-1.575l9.254-13.716 10.37 15.62c.13.262.328.525.328.722 0 .787-1.444 1.903-4.266 1.968v2.035c2.297-.197 7.088-.197 9.516-.197 2.757 0 5.776.066 8.532.197v-2.035h-1.247c-3.413 0-4.79-.328-6.17-2.362l-13.781-20.87z"/></symbol><symbol id="linkedin"><rect transform="scale(-1 1)" rx="30.201" ry="30.201" height="199.98" width="200" y=".011" x="-200" fill="#069"/><path opacity=".781" d="M147.16 8.561H52.84c-24.967 0-45.066 20.263-45.066 45.433v92.02c.808 19.647 3.917 7.227 9.834-14.53 6.877-25.288 29.273-47.389 56.547-63.953 20.817-12.642 44.119-20.715 86.533-21.483 24.054-.435 21.93-31.218-13.527-37.487z" fill="url(#linkedin-a)"/><path d="M63.992 167.85V76.966H33.784v90.884h30.208zm-15.1-103.3c10.534 0 17.091-6.979 17.091-15.7-.196-8.918-6.557-15.703-16.891-15.703-10.333 0-17.09 6.785-17.09 15.703 0 8.722 6.555 15.7 16.693 15.7h.196zM80.712 167.85h30.208v-50.754c0-2.716.196-5.43.994-7.372 2.184-5.427 7.154-11.047 15.499-11.047 10.931 0 15.304 8.334 15.304 20.551v48.622h30.206v-52.112c0-27.916-14.903-40.905-34.778-40.905-16.296 0-23.451 9.108-27.426 15.313h.202V76.965H80.713c.396 8.528 0 90.884 0 90.884z" fill="#FFF"/></symbol><symbol id="markup" viewBox="0 0 512 512"><title>HTML5 Logo Badge</title><path fill="#E34F26" d="M71 460L30 0h451l-41 460-185 52"/><path fill="#EF652A" d="M256 472l149-41 35-394H256"/><path fill="#EBEBEB" d="M256 208h-75l-5-58h80V94H114l1 15 14 156h127zm0 147h-1l-63-17-4-45h-56l7 89 116 32h1z"/><path fill="#FFF" d="M255 208v57h70l-7 73-63 17v59l116-32 1-10 13-149 2-15h-16zm0-114v56h137l1-12 3-29 1-15z"/></symbol><symbol id="mongodb" viewBox="0 0 512 146"><g fill="none" fill-rule="evenodd"><path d="M476.713 60.463c-.46.092-.922 1.107-.922 1.66-.092 3.692-.184 13.474-.184 20.118 0 .185.276.554.553.554 1.384.092 4.706.184 7.567.184 3.968 0 6.275-.553 7.568-1.106 3.321-1.662 4.89-5.261 4.89-9.23 0-8.95-6.275-12.365-15.596-12.365-.646-.092-2.49-.092-3.876.185zm23.81 41.25c0-9.136-6.737-14.212-18.918-14.212-.554 0-4.43-.092-5.353.092-.277.093-.645.278-.645.555 0 6.551-.093 16.98.184 21.04.184 1.753 1.477 4.245 3.046 4.983 1.66.923 5.444 1.107 8.028 1.107 7.29 0 13.658-4.06 13.658-13.565zm-42.634-46.325c.922 0 3.69.276 10.796.276 6.737 0 12.089-.184 18.641-.184 8.028 0 19.102 2.86 19.102 14.857 0 5.906-4.153 10.613-9.597 12.92-.276.092-.276.276 0 .368 7.751 1.939 14.581 6.737 14.581 15.78 0 8.86-5.537 14.489-13.566 17.996-4.891 2.122-10.981 2.86-17.164 2.86-4.707 0-17.349-.553-24.362-.368-.738-.278.646-3.6 1.291-4.153 1.662-.093 2.953-.185 4.707-.739 2.492-.645 2.768-1.384 3.137-5.167.185-3.23.185-14.674.185-22.794 0-11.166.093-18.733 0-22.424-.092-2.86-1.107-3.784-3.137-4.338-1.57-.276-4.153-.646-6.276-.922-.462-.462 1.107-3.6 1.662-3.968zm-53.248 57.399c2.216 1.752 6.553 2.49 10.429 2.49 4.983 0 9.966-.921 14.765-5.26 4.891-4.428 8.305-11.257 8.305-22.146 0-10.429-3.968-18.919-12.089-23.901-4.614-2.862-10.52-4.06-17.349-4.06-2.03 0-3.968.092-5.167.645-.278.185-.923 1.015-.923 1.476-.185 1.846-.185 16.057-.185 24.363 0 8.582 0 20.579.185 21.963 0 1.385.645 3.507 2.03 4.43zm-20.948-57.4c1.754 0 8.49.277 11.72.277 5.815 0 9.967-.276 20.948-.276 9.228 0 16.98 2.491 22.517 7.197 6.736 5.814 10.244 13.843 10.244 23.624 0 13.935-6.368 21.964-12.736 26.578-6.366 4.706-14.672 7.474-26.484 7.474-6.275 0-17.072-.184-26.024-.277h-.092c-.461-.83.738-4.06 1.476-4.152 2.4-.277 3.046-.37 4.246-.83 1.937-.739 2.307-1.754 2.584-5.168.276-6.368.184-14.027.184-22.702 0-6.182.092-18.272-.093-22.148-.276-3.229-1.66-4.06-4.429-4.614-1.384-.276-3.23-.646-5.813-.922-.37-.647 1.291-3.507 1.752-4.06z" fill="#8E714E"/><path d="M272.033 116.385c-2.307-.277-3.968-.645-5.998-1.568-.277-.185-.739-1.107-.739-1.477-.184-3.23-.184-12.458-.184-18.64 0-4.984-.83-9.321-2.953-12.366-2.492-3.508-6.09-5.537-10.705-5.537-4.06 0-9.505 2.768-14.027 6.644-.092.092-.83.739-.738-.277 0-1.015.185-3.045.277-4.43.093-1.292-.646-1.937-.646-1.937-2.953 1.476-11.258 3.414-14.304 3.69-2.214.463-2.768 2.585-.46 3.323h.092c2.49.738 4.152 1.569 5.443 2.4.923.738.831 1.753.831 2.584.092 6.92.092 17.533-.184 23.347-.092 2.307-.738 3.137-2.4 3.506l.185-.092c-1.292.277-2.307.553-3.876.738-.554.554-.554 3.507 0 4.153 1.015 0 6.367-.277 10.798-.277 6.09 0 9.228.277 10.796.277.646-.738.831-3.507.462-4.153-1.754-.092-3.046-.276-4.245-.646-1.661-.37-2.123-1.199-2.216-3.137-.183-4.892-.183-15.227-.183-22.24 0-1.938.553-2.861 1.106-3.415 2.123-1.845 5.538-3.137 8.583-3.137 2.953 0 4.89.923 6.367 2.123 2.03 1.66 2.676 4.06 2.953 5.813.461 3.968.277 11.812.277 18.641 0 3.691-.277 4.614-1.66 5.075-.647.277-2.308.647-4.246.83-.646.647-.461 3.508 0 4.154 2.676 0 5.814-.277 10.428-.277 5.721 0 9.413.277 10.89.277.46-.554.645-3.23.276-3.969zm25.562-35.25c-4.89 0-7.936 3.783-7.936 9.688 0 5.999 2.676 12.92 10.243 12.92 1.292 0 3.692-.554 4.798-1.846 1.754-1.66 2.954-4.983 2.954-8.49 0-7.659-3.784-12.273-10.059-12.273zm-.646 40.787c-1.845 0-3.138.554-3.968 1.016-3.876 2.49-5.629 4.89-5.629 7.752 0 2.675 1.015 4.797 3.23 6.643 2.676 2.307 6.367 3.415 11.073 3.415 9.413 0 13.566-5.076 13.566-10.058 0-3.508-1.754-5.815-5.352-7.106-2.584-1.108-7.29-1.662-12.92-1.662zm.646 23.994c-5.629 0-9.69-1.2-13.196-3.876-3.415-2.584-4.891-6.46-4.891-9.136 0-.738.185-2.769 1.846-4.614 1.014-1.108 3.23-3.23 8.49-6.829.184-.092.276-.184.276-.37 0-.184-.185-.369-.369-.46-4.337-1.661-5.629-4.338-5.999-5.814v-.185c-.091-.554-.276-1.107.555-1.661.646-.461 1.569-1.015 2.583-1.66 1.569-.924 3.23-1.939 4.245-2.77.185-.184.185-.368.185-.553 0-.185-.185-.37-.37-.461-6.458-2.123-9.688-6.922-9.688-14.12 0-4.706 2.122-8.951 5.905-11.627 2.584-2.03 9.044-4.522 13.289-4.522h.277c4.337.092 6.736 1.015 10.15 2.215 1.846.646 3.6.922 6 .922 3.598 0 5.167-1.107 6.458-2.398.093.184.278.646.37 1.845.092 1.2-.277 2.953-1.2 4.245-.738 1.015-2.399 1.754-4.06 1.754h-.462c-1.661-.185-2.4-.37-2.4-.37l-.368.185c-.092.185 0 .369.092.646l.093.185c.184.83.553 3.321.553 3.968 0 7.567-3.045 10.888-6.275 13.38-3.138 2.307-6.736 3.783-10.797 4.153-.092 0-.46 0-1.292.092-.461 0-1.107.093-1.2.093h-.092c-.738.184-2.583 1.107-2.583 2.675 0 1.384.83 3.046 4.798 3.323.83.092 1.66.092 2.584.185 5.26.368 11.812.83 14.857 1.845 4.245 1.568 6.921 5.352 6.921 9.874 0 6.83-4.89 13.197-13.011 17.164-3.968 1.754-7.937 2.677-12.274 2.677zm52.6-64.32c-1.937 0-3.691.46-4.983 1.383-3.598 2.215-5.444 6.645-5.444 13.104 0 12.09 6.09 20.58 14.765 20.58 2.584 0 4.614-.739 6.367-2.215 2.676-2.216 4.061-6.645 4.061-12.828 0-11.996-5.999-20.025-14.765-20.025zm1.662 39.496c-15.688 0-21.317-11.535-21.317-22.332 0-7.567 3.045-13.381 9.135-17.534 4.338-2.676 9.506-4.152 14.12-4.152 11.996 0 20.394 8.582 20.394 20.948 0 8.397-3.322 15.041-9.69 19.102-3.045 2.03-8.305 3.968-12.643 3.968h.001zM187.411 81.595c-1.938 0-3.691.461-4.984 1.384-3.598 2.215-5.444 6.645-5.444 13.104 0 12.09 6.09 20.58 14.765 20.58 2.584 0 4.614-.739 6.368-2.215 2.675-2.216 4.06-6.645 4.06-12.828 0-11.996-5.906-20.025-14.765-20.025zm1.661 39.497c-15.688 0-21.317-11.535-21.317-22.332 0-7.567 3.045-13.381 9.135-17.534 4.338-2.676 9.506-4.152 14.12-4.152 11.997 0 20.394 8.582 20.394 20.948 0 8.397-3.322 15.041-9.69 19.102-2.953 2.03-8.213 3.968-12.642 3.968zm-105.478-.923c-.185-.276-.37-1.107-.277-2.122 0-.739.185-1.2.277-1.384 1.938-.278 2.953-.555 4.06-.831 1.846-.462 2.584-1.476 2.676-3.783.278-5.537.278-16.058.185-23.348v-.185c0-.83 0-1.846-1.015-2.584-1.477-.922-3.23-1.752-5.537-2.4-.83-.275-1.384-.737-1.292-1.29 0-.554.554-1.2 1.754-1.385 3.045-.277 10.98-2.214 14.118-3.599.185.184.462.739.462 1.477l-.092 1.014c-.093 1.016-.185 2.216-.185 3.415 0 .369.37.646.738.646.185 0 .37-.092.554-.185 5.906-4.614 11.258-6.275 14.026-6.275 4.523 0 8.03 2.123 10.706 6.552.184.278.369.37.646.37.184 0 .46-.092.553-.277 5.445-4.153 10.89-6.645 14.488-6.645 8.582 0 13.658 6.368 13.658 17.165 0 3.045 0 7.013-.092 10.613 0 3.229-.092 6.182-.092 8.305 0 .46.645 1.937 1.66 2.214 1.292.646 3.046.923 5.353 1.292h.092c.185.646-.184 3.045-.553 3.507-.554 0-1.385 0-2.307-.092a136.208 136.208 0 0 0-7.014-.185c-5.721 0-8.674.092-11.536.277-.183-.738-.276-2.953 0-3.507 1.662-.276 2.492-.554 3.508-.83 1.846-.554 2.307-1.385 2.4-3.784 0-1.753.368-16.703-.186-20.302-.553-3.691-3.322-8.028-9.413-8.028-2.307 0-5.905.923-9.412 3.598-.184.185-.37.646-.37.923v.093c.37 1.937.37 4.153.37 7.567v5.998c0 4.153-.093 8.029 0 10.981 0 2.031 1.2 2.492 2.215 2.862.554.091.922.184 1.384.276.83.185 1.661.37 2.953.646.185.37.185 1.569-.092 2.584-.093.554-.278.83-.37.923-3.137-.092-6.367-.185-11.073-.185-1.384 0-3.784.093-5.814.093-1.662 0-3.23.092-4.152.092-.093-.185-.278-.83-.278-1.846 0-.83.185-1.476.37-1.661.461-.092.83-.184 1.292-.184 1.106-.185 2.03-.37 2.952-.554 1.57-.461 2.123-1.292 2.215-3.322.277-4.614.554-17.81-.092-21.133-1.107-5.352-4.152-8.028-9.044-8.028-2.86 0-6.46 1.384-9.412 3.6-.462.368-.831 1.29-.831 2.121v5.445c0 6.644 0 14.95.092 18.549.093 1.106.461 2.399 2.584 2.86.462.092 1.2.277 2.123.37l1.66.276c.186.554.093 2.769-.276 3.507-.923 0-2.03-.092-3.323-.092-1.937-.093-4.429-.185-7.197-.185-3.23 0-5.537.092-7.383.185-1.292-.185-2.307-.185-3.414-.185z" fill="#442D22"/><path d="M35.053 142.317l-3.783-1.293s.462-19.286-6.46-20.67c-4.613-5.353.74-227.013 17.35-.739 0 0-5.722 2.86-6.737 7.752-1.108 4.799-.37 14.95-.37 14.95z" fill="#FFF"/><path d="M35.053 142.317l-3.783-1.293s.462-19.286-6.46-20.67c-4.613-5.353.74-227.013 17.35-.739 0 0-5.722 2.86-6.737 7.752-1.108 4.799-.37 14.95-.37 14.95z" fill="#A6A385"/><path d="M37.084 123.676s33.13-21.779 25.377-67.09c-7.474-32.943-25.1-43.74-27.038-47.893C33.301 5.74 31.27.573 31.27.573l1.385 91.634c0 .093-2.861 28.054 4.43 31.47" fill="#FFF"/><path d="M37.084 123.676s33.13-21.779 25.377-67.09c-7.474-32.943-25.1-43.74-27.038-47.893C33.301 5.74 31.27.573 31.27.573l1.385 91.634c0 .093-2.861 28.054 4.43 31.47" fill="#499D4A"/><path d="M29.333 124.875S-1.767 103.65.079 66.277C1.832 28.903 23.795 10.539 28.04 7.217c2.769-2.953 2.861-4.061 3.046-7.014 1.938 4.153 1.569 62.106 1.845 68.934.83 26.3-1.476 50.756-3.598 55.738z" fill="#FFF"/><path d="M29.333 124.875S-1.767 103.65.079 66.277C1.832 28.903 23.795 10.539 28.04 7.217c2.769-2.953 2.861-4.061 3.046-7.014 1.938 4.153 1.569 62.106 1.845 68.934.83 26.3-1.476 50.756-3.598 55.738z" fill="#58AA50"/></g></symbol><symbol id="msexcel" viewBox="0 0 88.030066 86"><path d="M46.04 0h5.94v8c10.01 0 20.02.02 30.03-.03 1.69.07 3.55-.05 5.02.96 1.03 1.48.91 3.36.98 5.06-.05 17.36-.03 34.71-.02 52.06-.05 2.91.27 5.88-.34 8.75-.4 2.08-2.9 2.13-4.57 2.2-10.36.03-20.73-.02-31.1 0v9h-6.21C30.53 83.23 15.26 80.67 0 78V8.01C15.35 5.34 30.7 2.71 46.04 0z" fill="#207245"/><path d="M51.98 11h33v63h-33v-6h8v-7h-8v-4h8v-7h-8v-4h8v-7h-8v-4h8v-7h-8v-4h8v-7h-8v-6z" fill="#fff"/><path d="M63.98 17h14v7h-14v-7z" fill="#207245"/><path d="M29.62 26.37c2.26-.16 4.53-.3 6.8-.41-2.67 5.47-5.35 10.94-8.07 16.39 2.75 5.6 5.56 11.16 8.32 16.76-2.41-.14-4.81-.29-7.22-.46-1.7-4.17-3.77-8.2-4.99-12.56-1.36 4.06-3.3 7.89-4.86 11.87-2.19-.03-4.38-.12-6.57-.21 2.57-5.03 5.05-10.1 7.7-15.1-2.25-5.15-4.72-10.2-7.04-15.32 2.2-.13 4.4-.26 6.6-.38 1.49 3.91 3.12 7.77 4.35 11.78 1.32-4.25 3.29-8.25 4.98-12.36z" fill="#fff"/><path d="M63.98 28h14v7h-14v-7zM63.98 39h14v7h-14v-7zM63.98 50h14v7h-14v-7zM63.98 61h14v7h-14v-7z" fill="#207245"/></symbol><symbol id="mspowerpoint" viewBox="0 0 110.031 107.5"><path d="M57.893 0h7.087v11.25c13.363.075 26.738-.138 40.088.062 2.875-.275 5.125 1.962 4.838 4.837.212 23.35-.05 46.712.125 70.075-.125 2.525.25 5.325-1.2 7.562-1.825 1.325-4.2 1.15-6.338 1.25-12.5-.062-25-.037-37.513-.037v12.5h-7.774c-19.05-3.475-38.138-6.65-57.2-10-.013-29.162 0-58.325 0-87.475C19.292 6.688 38.58 3.288 57.893 0z" fill="#d24625"/><path d="M64.98 15h41.25v76.25H64.98v-10h30v-5h-30V70h30v-5H64.993c-.013-2.45-.013-4.9-.024-7.35 4.95 1.537 10.587 1.5 15.012-1.476 4.788-2.837 7.288-8.25 7.7-13.65-5.487-.038-10.975-.025-16.45-.025-.012-5.438.062-10.875-.112-16.3-2.05.4-4.1.825-6.138 1.262V15z" fill="#fff"/><path d="M73.743 23.587c8.688.4 15.987 7.712 16.45 16.375-5.488.063-10.975.038-16.463.038 0-5.475-.012-10.95.013-16.413z" fill="#d24625"/><path d="M20.055 33.025c6.788.325 15.013-2.688 20.638 2.4 5.388 6.538 3.963 18.562-4.025 22.476-2.837 1.449-6.087 1.25-9.175 1.149-.013 4.888-.024 9.775-.013 14.663a1323.27 1323.27 0 0 0-7.438-.625c-.112-13.351-.136-26.713.013-40.063z" fill="#fff"/><path d="M27.48 39.788c2.463-.113 5.513-.562 7.176 1.75 1.425 2.45 1.35 5.675.162 8.2-1.425 2.575-4.65 2.325-7.138 2.625-.263-4.188-.237-8.376-.2-12.575z" fill="#d24625"/></symbol><symbol id="mssharepoint" viewBox="0 0 22.95371 20.931364"><g clip-path="url(#mssharepoint-a)" transform="matrix(.35278 0 0 -.35278 -7.305 21.167)"><path d="M318.215 13.14c-.911-.52-2.068-.777-3.486-.777-4.116 0-6.18 2.403-6.18 7.223v14.977h-4.147v3.242h4.148v6.115l3.603 1.205v-7.32h6.062v-3.242h-6.062V20.272c0-1.755.279-2.977.84-3.672.567-.694 1.478-1.043 2.739-1.043.958 0 1.782.274 2.483.833zm-18.194-.234h-3.626v14.217c0 5.386-1.891 8.079-5.672 8.079-1.947 0-3.566-.76-4.848-2.288-1.285-1.522-1.923-3.462-1.923-5.816V12.906h-3.626v24.899h3.626v-4.17h.085c1.8 3.16 4.42 4.737 7.867 4.737 2.63 0 4.64-.873 6.034-2.628 1.39-1.755 2.083-4.293 2.083-7.626zm-31.164 24.899h3.603v-24.9h-3.603zm-.505 8.963c0 .704.233 1.303.684 1.788.459.477 1.012.72 1.665.72.686 0 1.26-.243 1.72-.737.469-.485.7-1.084.7-1.771 0-.712-.231-1.31-.7-1.78-.46-.476-1.034-.712-1.72-.712-.653 0-1.206.236-1.665.697-.451.47-.684 1.066-.684 1.795m-25.438-21.563c0-2.943.74-5.29 2.218-7.051 1.486-1.764 3.454-2.645 5.913-2.645 2.562 0 4.514.849 5.875 2.549 1.362 1.696 2.039 4.115 2.039 7.238 0 3.144-.685 5.579-2.052 7.31-1.364 1.73-3.316 2.596-5.862 2.596-2.473 0-4.448-.898-5.92-2.677-1.48-1.785-2.211-4.23-2.211-7.32m-3.673-.168c0 4.14 1.084 7.4 3.246 9.777 2.17 2.369 5.126 3.558 8.886 3.558 3.495 0 6.248-1.14 8.264-3.42 2.008-2.281 3.018-5.458 3.018-9.537 0-3.946-1.09-7.117-3.26-9.51-2.18-2.394-5.04-3.59-8.598-3.59-3.48 0-6.27 1.165-8.388 3.5-2.107 2.339-3.168 5.413-3.168 9.222m-18.968 19.192V29.727h4.214c2.749 0 4.85.647 6.305 1.94 1.455 1.295 2.179 3.147 2.179 5.549 0 4.675-2.662 7.013-7.984 7.013zm0-18.075V12.906h-3.676v34.88h9.052c3.53 0 6.28-.913 8.24-2.725 1.969-1.82 2.956-4.366 2.956-7.658 0-3.398-1.158-6.148-3.462-8.267-2.311-2.116-5.185-3.112-8.62-2.982zm-13.815 1.584c0 2.32-.536 4.14-1.61 5.45-1.073 1.31-2.57 1.966-4.482 1.966-1.803 0-3.361-.68-4.668-2.03-1.31-1.351-2.125-3.145-2.444-5.386zm3.736-3.315h-16.987c.079-2.882.82-5.081 2.226-6.601 1.41-1.528 3.29-2.29 5.664-2.29 2.74 0 5.229.939 7.479 2.824v-3.6c-2.141-1.633-4.92-2.441-8.32-2.441-3.375 0-6.011 1.148-7.92 3.444-1.913 2.299-2.863 5.475-2.863 9.537 0 3.775 1.052 6.898 3.144 9.374 2.1 2.475 4.7 3.702 7.795 3.702 3.107 0 5.51-1.05 7.215-3.163 1.712-2.101 2.567-5.021 2.567-8.75zm-22.635 9.526c-.685.535-1.65.8-2.895.8-1.641 0-3.018-.825-4.125-2.482-1.113-1.668-1.664-3.865-1.664-6.616V12.906h-3.628v24.899h3.628v-5.166h.084c.554 1.756 1.387 3.129 2.5 4.116 1.12.987 2.364 1.48 3.748 1.48 1.006 0 1.792-.113 2.352-.33zm-29.11-9.22c-1.868-.25-3.253-.73-4.147-1.423-.902-.695-1.345-1.877-1.345-3.552 0-1.268.426-2.288 1.282-3.056.865-.776 1.994-1.165 3.386-1.165 1.928 0 3.53.71 4.793 2.134 1.26 1.425 1.89 3.205 1.89 5.355v2.517zm-6.908 11.299c2.34 1.568 5.032 2.344 8.069 2.344 5.562 0 8.347-3.055 8.347-9.186v-16.28h-3.627v3.905h-.137c-1.658-3-4.11-4.496-7.361-4.496-2.343 0-4.202.647-5.573 1.95-1.377 1.309-2.07 3.047-2.07 5.223 0 4.635 2.63 7.327 7.89 8.08l7.229 1.092c0 4.328-1.656 6.494-4.971 6.494-2.92 0-5.518-1.034-7.796-3.106zm-7.891-23.122h-3.602V27.26c0 5.297-1.901 7.94-5.697 7.94-1.9 0-3.502-.766-4.81-2.295-1.307-1.537-1.96-3.504-1.96-5.903V12.906h-3.625v36.847h3.626V33.635h.086c1.844 3.16 4.473 4.737 7.89 4.737 5.39 0 8.092-3.38 8.092-10.133zm-46.097 6.04c1.035-.93 2.42-1.682 4.164-2.248 1.735-.575 3.345-.858 4.816-.858 4.879 0 7.322 1.844 7.322 5.525 0 1.059-.257 1.989-.762 2.797a7.15 7.15 0 0 1-2.001 2.055c-.817.575-2.528 1.554-5.127 2.944-3.128 1.673-5.307 3.218-6.528 4.633-1.222 1.408-1.837 3.188-1.837 5.315 0 2.847 1.112 5.094 3.339 6.753 2.225 1.657 4.97 2.492 8.239 2.492 3.315 0 5.689-.413 7.112-1.238V42.69c-1.945 1.399-4.474 2.104-7.586 2.104-2.132 0-3.867-.47-5.214-1.416-1.346-.954-2.015-2.264-2.015-3.94 0-1.51.475-2.748 1.424-3.702.95-.956 2.926-2.192 5.913-3.714 3.503-1.81 5.853-3.524 7.074-5.135 1.214-1.617 1.82-3.364 1.82-5.24 0-3.016-1.05-5.33-3.143-6.931-2.101-1.602-5.003-2.402-8.707-2.402-1.175 0-2.646.192-4.412.582-1.774.38-3.065.858-3.891 1.43zM78 36.499c-.42 0-.83-.044-1.225-.126a16.448 16.448 0 0 1-8.279 8.872c.031.248.053.499.053.755a6 6 0 0 1-6 5.999 5.97 5.97 0 0 1-3.716-1.295v-9.409a5.99 5.99 0 0 1 8.65 1.296 13.596 13.596 0 0 0 6.726-7.443A5.987 5.987 0 0 1 72 30.5c0-1.897.883-3.585 2.257-4.685a13.606 13.606 0 0 0-6.774-7.574 5.99 5.99 0 0 1-8.65 1.297v-9.41a5.966 5.966 0 0 1 3.715-1.295 6 6 0 0 1 6 6c0 .256-.021.507-.052.754a16.451 16.451 0 0 1 8.336 9.028A6 6 0 1 1 78 36.499M40.41 18.674c-2.84-2.061-6.56-1.19-9.55.04-.04 1.74-.08 3.48-.139 5.23 1.92-1.42 4.76-3.51 7.048-1.57 1.771 2.97-1.709 4.86-3.719 6.3-4.32 2.61-4.48 9.75-.29 12.54 2.45 1.55 5.44 1.06 8.14.68l.12-4.93c-2.25.71-5.12 2.14-6.97-.15-1.29-3.37 2.79-4.64 4.76-6.4 3.85-2.49 4.18-8.89.6-11.74M20.783 53.667L20.708 7 55.542.667V60z" fill="#356dbe"/></g></symbol><symbol id="msword" viewBox="0 0 38.816059 37.923611"><g clip-path="url(#msword-a)" transform="matrix(.35278 0 0 -.35278 -129.092 123.962)"><path d="M423.435 351.388h7.475v-10c13.375-.075 26.738.138 40.101-.075 2.85.288 5.087-1.925 4.824-4.775.213-24.625-.05-49.261.125-73.886-.125-2.526.25-5.327-1.212-7.563-1.825-1.301-4.188-1.14-6.312-1.237-12.514.06-25.014.036-37.526.036v-10h-7.812c-19.024 3.475-38.1 6.662-57.162 10-.013 29.162 0 58.325 0 87.475 19.161 3.35 38.337 6.612 57.5 10.025" fill="#2a5699"/><path d="M430.91 337.638h41.25v-80h-41.25v10h32.5v5h-32.5v6.25h32.5v5h-32.5v6.25h32.5v5h-32.5v6.25h32.5v5h-32.5v6.25h32.5v5h-32.5v6.25h32.5v5h-32.5zM391.76 315.55c2.375.138 4.75.238 7.125.363 1.662-8.438 3.361-16.862 5.162-25.261 1.412 8.674 2.976 17.324 4.486 25.986 2.5.087 5 .225 7.49.375-2.826-12.112-5.302-24.325-8.389-36.361-2.089-1.09-5.214.048-7.688-.125-1.664 8.273-3.6 16.5-5.088 24.81-1.462-8.074-3.363-16.074-5.037-24.1-2.4.126-4.812.275-7.226.438-2.074 11-4.513 21.925-6.449 32.95 2.136.1 4.287.188 6.425.263 1.287-7.962 2.75-15.888 3.875-23.861 1.764 8.173 3.564 16.348 5.314 24.524" fill="#fff"/></g></symbol><symbol id="node" viewBox="0 0 135.28319 82.839546"><g fill="none"><path d="M66.908 82.84c-.459 0-.887-.123-1.285-.337l-4.067-2.416c-.611-.336-.305-.458-.122-.52.826-.275.979-.336 1.835-.825.091-.061.214-.03.306.03l3.119 1.866c.122.061.275.061.367 0l12.2-7.064c.123-.061.184-.183.184-.336V59.14c0-.153-.06-.276-.183-.337L67.06 51.771c-.123-.061-.276-.061-.367 0l-12.202 7.033c-.122.061-.183.214-.183.337v14.097c0 .122.061.275.183.336l3.334 1.926c1.804.918 2.935-.152 2.935-1.223V60.364c0-.184.153-.367.367-.367h1.56c.183 0 .367.153.367.367v13.913c0 2.416-1.315 3.823-3.609 3.823-.703 0-1.253 0-2.813-.765l-3.21-1.835a2.58 2.58 0 0 1-1.285-2.232V59.171c0-.917.49-1.773 1.284-2.232l12.201-7.064c.765-.428 1.805-.428 2.569 0l12.201 7.064a2.58 2.58 0 0 1 1.285 2.232v14.097a2.58 2.58 0 0 1-1.285 2.232l-12.201 7.064a3.13 3.13 0 0 1-1.284.276zm3.761-9.694c-5.351 0-6.452-2.446-6.452-4.526 0-.183.153-.367.367-.367h1.59c.183 0 .336.123.336.306.245 1.62.948 2.416 4.19 2.416 2.568 0 3.67-.581 3.67-1.957 0-.795-.307-1.376-4.313-1.774-3.333-.336-5.412-1.07-5.412-3.73 0-2.478 2.08-3.945 5.565-3.945 3.914 0 5.84 1.345 6.086 4.28 0 .092-.031.184-.092.276-.061.061-.153.122-.245.122h-1.59a.358.358 0 0 1-.336-.275c-.367-1.682-1.315-2.232-3.823-2.232-2.813 0-3.15.978-3.15 1.712 0 .887.398 1.162 4.19 1.652 3.761.489 5.535 1.192 5.535 3.822-.03 2.69-2.232 4.22-6.116 4.22z" fill="#539e43"/><path d="M29.05 27.705c0-.55-.305-1.07-.795-1.346L15.29 18.9a1.882 1.882 0 0 0-.704-.215h-.122c-.245 0-.49.092-.703.214L.795 26.36c-.49.276-.795.795-.795 1.346l.03 20.06c0 .275.153.55.398.673.245.153.55.153.765 0l7.706-4.404c.489-.275.795-.795.795-1.345V33.3c0-.55.305-1.07.795-1.346l3.272-1.895c.244-.153.52-.215.795-.215s.55.062.764.215l3.272 1.895c.49.276.795.796.795 1.346v9.388c0 .55.306 1.07.795 1.345l7.706 4.404c.245.153.55.153.795 0a.76.76 0 0 0 .398-.673zM91.371.092c-.244-.123-.55-.123-.764 0-.245.153-.398.397-.398.672v19.877a.588.588 0 0 1-.275.49.585.585 0 0 1-.55 0l-3.242-1.866a1.576 1.576 0 0 0-1.56 0l-12.965 7.492c-.49.275-.795.795-.795 1.345v14.954c0 .55.306 1.07.795 1.345l12.966 7.492c.489.275 1.07.275 1.56 0l12.965-7.492c.489-.275.795-.795.795-1.345V5.78c0-.582-.306-1.101-.795-1.377zm-1.192 38.04c0 .153-.062.276-.184.337l-4.434 2.569a.454.454 0 0 1-.397 0l-4.434-2.57c-.123-.06-.184-.213-.184-.336v-5.137c0-.153.061-.275.184-.336l4.434-2.569a.454.454 0 0 1 .397 0l4.434 2.569c.122.06.184.214.184.336zM134.519 32.873c.489-.275.764-.795.764-1.346v-3.639c0-.55-.306-1.07-.764-1.345l-12.874-7.461a1.576 1.576 0 0 0-1.56 0l-12.965 7.491c-.49.276-.795.796-.795 1.346v14.953c0 .55.305 1.07.795 1.346l12.873 7.339c.49.275 1.07.275 1.53 0l7.797-4.342a.76.76 0 0 0 .398-.673.76.76 0 0 0-.398-.673l-13.027-7.492c-.244-.153-.397-.397-.397-.673v-4.678a.76.76 0 0 1 .397-.673l4.067-2.324a.746.746 0 0 1 .796 0l4.067 2.324c.244.153.397.398.397.673v3.67c0 .274.153.55.398.672.244.153.55.153.795 0z" fill="#333"/><path d="M120.666 32.17a.278.278 0 0 1 .306 0l2.477 1.437a.321.321 0 0 1 .153.275v2.874a.321.321 0 0 1-.153.276l-2.477 1.437a.278.278 0 0 1-.306 0l-2.477-1.437a.321.321 0 0 1-.153-.276v-2.874c0-.122.062-.214.153-.275z" fill="#539e43"/><g transform="matrix(.26458 0 0 .26458 35.41 18.653)"><mask fill="#fff" id="node-c"><use xlink:href="#node-a" width="100%" height="100%"/></mask><use xlink:href="#node-a" width="100%" height="100%" fill="url(#node-b)"/><g mask="url(#node-c)"><path d="M51.893 1.85L3.121 29.933C1.27 30.974 0 32.94 0 35.02v56.286c0 1.387.578 2.658 1.502 3.698L56.285 1.156c-1.387-.231-3.005-.116-4.392.693zM56.632 125.053c.462-.116.925-.347 1.387-.578l48.773-28.085c1.85-1.04 3.005-3.005 3.005-5.085V35.019c0-1.502-.694-3.005-1.734-4.045z"/><path d="M106.676 29.934L57.788 1.85a8.025 8.025 0 0 0-1.503-.578L1.502 95.12a6.082 6.082 0 0 0 1.619 1.387l48.888 28.085c1.387.809 3.005 1.04 4.507.577l51.432-94.078c-.347-.462-.81-.81-1.272-1.156z" fill="url(#node-d)"/></g><g mask="url(#node-c)"><path d="M109.797 91.305V35.019c0-2.08-1.271-4.045-3.12-5.085L57.786 1.85a5.106 5.106 0 0 0-1.848-.693l53.511 91.42c.231-.347.347-.809.347-1.271zM3.12 29.934C1.272 30.974 0 32.94 0 35.02v56.286c0 2.08 1.387 4.045 3.12 5.085l48.889 28.085c1.156.693 2.427.925 3.814.693L3.467 29.818z"/><path d="M50.391.809l-.693.347h.924z" fill="url(#node-e)" fill-rule="evenodd" transform="translate(0 -9.246)"/><path d="M106.792 105.636c1.387-.809 2.427-2.196 2.89-3.698L56.053 10.402c-1.387-.231-2.89-.116-4.16.693L3.351 39.065l52.355 95.465a8.056 8.056 0 0 0 2.196-.693z" fill="url(#node-f)" fill-rule="evenodd" transform="translate(0 -9.246)"/><path d="M111.3 104.712l-.347-.578v.809z" fill="url(#node-g)" fill-rule="evenodd" transform="translate(0 -9.246)"/><path d="M106.792 105.636l-48.773 28.085a6.973 6.973 0 0 1-2.196.693l.925 1.734 54.089-31.32v-.694l-1.387-2.312c-.231 1.618-1.271 3.005-2.658 3.814z" fill="url(#node-h)" fill-rule="evenodd" transform="translate(0 -9.246)"/><path d="M106.792 105.636l-48.773 28.085a6.973 6.973 0 0 1-2.196.693l.925 1.734 54.089-31.32v-.694l-1.387-2.312c-.231 1.618-1.271 3.005-2.658 3.814z" fill="url(#node-i)" fill-rule="evenodd" transform="translate(0 -9.246)"/></g></g></g></symbol><symbol id="photoshop" viewBox="-362.4 459.1 500 500"><radialGradient id="photoshop-a" cx="-1002.912" cy="1088.669" r=".637" gradientTransform="matrix(545.6736 0 0 -528.3113 547071.625 575749.063)" gradientUnits="userSpaceOnUse"><stop offset="0" stop-color="#34364e" stop-opacity=".98"/><stop offset="1" stop-color="#0c0824"/></radialGradient><path fill="url(#photoshop-a)" d="M-341.6 493.3h457.5v445h-457.5v-445z"/><path fill="#31C5F0" d="M-341.6 493.3h457.5v445h-457.5v-445zm-20.8 465.8h499V472.5h-499v486.6zm336.5-286.9c-16.4 0-22 8.3-22 15.2 0 7.5 3.7 12.7 25.8 24.1 32.6 15.8 42.8 31 42.8 53.2 0 33.3-25.4 51.2-59.7 51.2-18.1 0-33.7-3.7-42.6-8.9-1.5-.6-1.7-1.7-1.7-3.3V773c0-2.1 1-2.7 2.5-1.7 13.1 8.5 28.1 12.3 41.8 12.3 16.4 0 23.3-6.9 23.3-16.2 0-7.5-4.8-14.1-25.8-25C-71 728.3-83.3 714-83.3 690c0-26.8 21-49.1 57.4-49.1 17.9 0 30.4 2.7 37.2 5.8 1.7 1 2.1 2.7 2.1 4.2v28.5c0 1.7-1 2.7-3.1 2.1-9.2-5.8-22.7-9.3-36.2-9.3zm-178.8 24.7c4.8.4 8.5.4 16.8.4 24.3 0 47.2-8.5 47.2-41.6 0-26.4-16.4-39.7-44.1-39.7-8.3 0-16.2.4-20 .6l.1 80.3zm-37.1-110.4c0-1.5 2.9-2.5 4.6-2.5 13.3-.6 33.1-1 53.6-1 57.6 0 80.1 31.6 80.1 71.9 0 52.8-38.3 75.5-85.3 75.5-7.9 0-10.6-.4-16.2-.4v79.8c0 1.7-.6 2.5-2.5 2.5h-31.8c-1.7 0-2.5-.6-2.5-2.5V586.5z"/></symbol><symbol id="poland" viewBox="0 0 512.001 512.001"><path d="M0 256h512v158.897a8.829 8.829 0 0 1-8.828 8.828H8.828A8.829 8.829 0 0 1 0 414.897V256z" fill="#ff4b55"/><path d="M512 256H0V97.103a8.829 8.829 0 0 1 8.828-8.828h494.345a8.829 8.829 0 0 1 8.828 8.828L512 256z" fill="#f5f5f5"/></symbol><symbol id="react" viewBox="0 0 841.9 595.3"><g fill="#61DAFB"><path d="M666.3 296.5c0-32.5-40.7-63.3-103.1-82.4 14.4-63.6 8-114.2-20.2-130.4-6.5-3.8-14.1-5.6-22.4-5.6v22.3c4.6 0 8.3.9 11.4 2.6 13.6 7.8 19.5 37.5 14.9 75.7-1.1 9.4-2.9 19.3-5.1 29.4-19.6-4.8-41-8.5-63.5-10.9-13.5-18.5-27.5-35.3-41.6-50 32.6-30.3 63.2-46.9 84-46.9V78c-27.5 0-63.5 19.6-99.9 53.6-36.4-33.8-72.4-53.2-99.9-53.2v22.3c20.7 0 51.4 16.5 84 46.6-14 14.7-28 31.4-41.3 49.9-22.6 2.4-44 6.1-63.6 11-2.3-10-4-19.7-5.2-29-4.7-38.2 1.1-67.9 14.6-75.8 3-1.8 6.9-2.6 11.5-2.6V78.5c-8.4 0-16 1.8-22.6 5.6-28.1 16.2-34.4 66.7-19.9 130.1-62.2 19.2-102.7 49.9-102.7 82.3 0 32.5 40.7 63.3 103.1 82.4-14.4 63.6-8 114.2 20.2 130.4 6.5 3.8 14.1 5.6 22.5 5.6 27.5 0 63.5-19.6 99.9-53.6 36.4 33.8 72.4 53.2 99.9 53.2 8.4 0 16-1.8 22.6-5.6 28.1-16.2 34.4-66.7 19.9-130.1 62-19.1 102.5-49.9 102.5-82.3zm-130.2-66.7c-3.7 12.9-8.3 26.2-13.5 39.5-4.1-8-8.4-16-13.1-24-4.6-8-9.5-15.8-14.4-23.4 14.2 2.1 27.9 4.7 41 7.9zm-45.8 106.5c-7.8 13.5-15.8 26.3-24.1 38.2-14.9 1.3-30 2-45.2 2-15.1 0-30.2-.7-45-1.9-8.3-11.9-16.4-24.6-24.2-38-7.6-13.1-14.5-26.4-20.8-39.8 6.2-13.4 13.2-26.8 20.7-39.9 7.8-13.5 15.8-26.3 24.1-38.2 14.9-1.3 30-2 45.2-2 15.1 0 30.2.7 45 1.9 8.3 11.9 16.4 24.6 24.2 38 7.6 13.1 14.5 26.4 20.8 39.8-6.3 13.4-13.2 26.8-20.7 39.9zm32.3-13c5.4 13.4 10 26.8 13.8 39.8-13.1 3.2-26.9 5.9-41.2 8 4.9-7.7 9.8-15.6 14.4-23.7 4.6-8 8.9-16.1 13-24.1zM421.2 430c-9.3-9.6-18.6-20.3-27.8-32 9 .4 18.2.7 27.5.7 9.4 0 18.7-.2 27.8-.7-9 11.7-18.3 22.4-27.5 32zm-74.4-58.9c-14.2-2.1-27.9-4.7-41-7.9 3.7-12.9 8.3-26.2 13.5-39.5 4.1 8 8.4 16 13.1 24 4.7 8 9.5 15.8 14.4 23.4zM420.7 163c9.3 9.6 18.6 20.3 27.8 32-9-.4-18.2-.7-27.5-.7-9.4 0-18.7.2-27.8.7 9-11.7 18.3-22.4 27.5-32zm-74 58.9c-4.9 7.7-9.8 15.6-14.4 23.7-4.6 8-8.9 16-13 24-5.4-13.4-10-26.8-13.8-39.8 13.1-3.1 26.9-5.8 41.2-7.9zm-90.5 125.2c-35.4-15.1-58.3-34.9-58.3-50.6 0-15.7 22.9-35.6 58.3-50.6 8.6-3.7 18-7 27.7-10.1 5.7 19.6 13.2 40 22.5 60.9-9.2 20.8-16.6 41.1-22.2 60.6-9.9-3.1-19.3-6.5-28-10.2zM310 490c-13.6-7.8-19.5-37.5-14.9-75.7 1.1-9.4 2.9-19.3 5.1-29.4 19.6 4.8 41 8.5 63.5 10.9 13.5 18.5 27.5 35.3 41.6 50-32.6 30.3-63.2 46.9-84 46.9-4.5-.1-8.3-1-11.3-2.7zm237.2-76.2c4.7 38.2-1.1 67.9-14.6 75.8-3 1.8-6.9 2.6-11.5 2.6-20.7 0-51.4-16.5-84-46.6 14-14.7 28-31.4 41.3-49.9 22.6-2.4 44-6.1 63.6-11 2.3 10.1 4.1 19.8 5.2 29.1zm38.5-66.7c-8.6 3.7-18 7-27.7 10.1-5.7-19.6-13.2-40-22.5-60.9 9.2-20.8 16.6-41.1 22.2-60.6 9.9 3.1 19.3 6.5 28.1 10.2 35.4 15.1 58.3 34.9 58.3 50.6-.1 15.7-23 35.6-58.4 50.6zM320.8 78.4z"/><circle cx="420.9" cy="296.5" r="45.7"/><path d="M520.5 78.1z"/></g></symbol><symbol id="sass" viewBox="0 0 256 192" preserveAspectRatio="xMidYMid"><path d="M220.281 110.514c-8.906.046-16.647 2.191-23.128 5.362-2.379-4.71-4.757-8.906-5.176-11.984-.467-3.59-1.026-5.782-.467-10.072.56-4.29 3.078-10.399 3.031-10.865-.046-.466-.56-2.658-5.689-2.704-5.129-.047-9.559.979-10.072 2.331-.513 1.352-1.492 4.43-2.145 7.6-.886 4.664-10.258 21.31-15.62 30.03-1.726-3.403-3.218-6.388-3.545-8.766-.466-3.59-1.026-5.782-.466-10.072.56-4.29 3.078-10.398 3.031-10.865-.047-.466-.56-2.658-5.689-2.704-5.13-.047-9.56.979-10.072 2.331-.513 1.353-1.073 4.523-2.145 7.601-1.073 3.078-13.523 30.87-16.787 38.05a214.726 214.726 0 0 1-4.15 8.627s-.047.14-.187.373a117.773 117.773 0 0 1-1.398 2.658v.046c-.7 1.26-1.446 2.425-1.819 2.425-.28 0-.793-3.357.093-7.927 1.865-9.652 6.295-24.667 6.249-25.18 0-.28.839-2.891-2.891-4.244-3.638-1.352-4.943.886-5.27.886-.326 0-.56.793-.56.793s4.058-16.88-7.74-16.88c-7.367 0-17.533 8.067-22.569 15.341a6269.96 6269.96 0 0 0-17.16 9.373c-2.75 1.539-5.595 3.078-8.253 4.523-.187-.186-.373-.42-.56-.606-14.269-15.248-40.661-26.02-39.542-46.49.42-7.461 2.984-27.046 50.687-50.827 39.262-19.352 70.505-13.99 75.914-2.099 7.74 16.974-16.74 48.496-57.309 53.065-15.481 1.726-23.595-4.243-25.646-6.481-2.145-2.332-2.472-2.472-3.265-2.005-1.305.7-.466 2.798 0 4.01 1.213 3.17 6.202 8.766 14.642 11.518 7.461 2.424 25.6 3.777 47.563-4.71 24.574-9.513 43.786-35.952 38.144-58.101-5.643-22.476-42.947-29.89-78.246-17.347C61.086 13.99 38.33 25.74 21.963 41.035 2.518 59.22-.56 75.028.699 81.65c4.524 23.501 36.932 38.796 49.895 50.127-.653.373-1.26.7-1.772.98-6.482 3.217-31.196 16.133-37.351 29.796-6.994 15.481 1.12 26.58 6.482 28.071 16.647 4.617 33.76-3.683 42.946-17.393 9.186-13.709 8.067-31.522 3.824-39.682-.047-.093-.093-.187-.187-.28 1.679-.979 3.404-2.005 5.083-2.984a247.933 247.933 0 0 1 9.373-5.27c-1.586 4.337-2.752 9.513-3.311 16.974-.7 8.767 2.89 20.144 7.6 24.62 2.099 1.96 4.57 2.006 6.156 2.006 5.502 0 7.974-4.57 10.725-9.979 3.357-6.621 6.388-14.315 6.388-14.315s-3.777 20.797 6.482 20.797c3.73 0 7.507-4.85 9.186-7.321v.046s.093-.14.28-.466c.373-.606.606-.98.606-.98v-.092c1.492-2.612 4.85-8.534 9.839-18.373 6.435-12.683 12.637-28.537 12.637-28.537s.56 3.87 2.471 10.305c1.12 3.777 3.45 7.927 5.316 11.937-1.492 2.099-2.425 3.264-2.425 3.264l.047.047c-1.213 1.585-2.518 3.31-3.964 4.99-5.083 6.061-11.144 13.01-11.984 15.014-.98 2.378-.746 4.104 1.12 5.503 1.352 1.026 3.776 1.165 6.248 1.026 4.57-.327 7.787-1.446 9.372-2.145 2.472-.886 5.363-2.239 8.067-4.244 4.99-3.684 8.02-8.953 7.741-15.9-.14-3.824-1.399-7.648-2.938-11.239.467-.652.886-1.305 1.353-1.958 7.88-11.518 13.989-24.155 13.989-24.155s.56 3.87 2.471 10.306c.933 3.264 2.845 6.808 4.523 10.258-7.414 6.016-11.984 13.01-13.616 17.58-2.937 8.487-.653 12.31 3.684 13.196 1.958.42 4.756-.513 6.808-1.399 2.611-.839 5.689-2.284 8.627-4.43 4.99-3.683 9.792-8.813 9.512-15.76-.14-3.171-.979-6.296-2.145-9.327 6.295-2.61 14.409-4.056 24.76-2.844 22.197 2.611 26.58 16.46 25.74 22.29-.839 5.828-5.502 8.999-7.04 9.978-1.54.98-2.052 1.306-1.912 2.005.186 1.026.932.98 2.238.793 1.819-.326 11.658-4.71 12.077-15.435.7-13.709-12.357-28.677-35.439-28.537zM49.055 168.242c-7.368 8.02-17.626 11.051-22.056 8.487-4.756-2.752-2.891-14.596 6.155-23.082 5.502-5.176 12.59-9.98 17.3-12.917 1.072-.653 2.658-1.585 4.57-2.751.326-.187.513-.28.513-.28l1.119-.7c3.31 12.124.14 22.803-7.601 31.243zm53.625-36.465c-2.565 6.249-7.927 22.243-11.191 21.357-2.798-.746-4.524-12.87-.56-24.854 2.005-6.016 6.248-13.197 8.72-15.994 4.01-4.477 8.44-5.97 9.512-4.15 1.353 2.378-4.896 19.724-6.481 23.641zm44.252 21.17c-1.073.56-2.098.933-2.565.653-.326-.187.467-.933.467-.933s5.549-5.968 7.74-8.673c1.26-1.585 2.751-3.45 4.337-5.549v.606c0 7.135-6.902 11.938-9.98 13.896zm34.133-7.787c-.793-.56-.653-2.425 2.005-8.254 1.026-2.285 3.45-6.108 7.601-9.792.466 1.492.793 2.938.746 4.29-.047 9-6.481 12.357-10.352 13.756z" fill="#CD6799"/></symbol><symbol id="spain" viewBox="0 0 512.001 512.001"><path d="M8.828 423.725h494.345a8.829 8.829 0 0 0 8.828-8.828V97.104a8.829 8.829 0 0 0-8.828-8.828H8.828A8.83 8.83 0 0 0 0 97.104v317.793a8.828 8.828 0 0 0 8.828 8.828z" fill="#c8414b"/><path fill="#ffd250" d="M0 158.901h512v194.21H0z"/><path d="M216.276 256.001l7.485-33.681c.69-3.102-1.671-6.044-4.849-6.044h-5.272c-3.177 0-5.537 2.942-4.849 6.044l7.485 33.681z" fill="#c8414b"/><path fill="#f5f5f5" d="M207.45 238.341h17.655v75.03H207.45z"/><path fill="#fab446" d="M203.03 229.521h26.483v8.828H203.03z"/><g fill="#c8414b"><path d="M185.38 256.001h44.14v8.828h-44.14zM229.517 291.311l-26.483-8.827v-8.828l26.483 8.828zM83.862 256.001l7.485-33.681c.69-3.102-1.671-6.044-4.849-6.044h-5.272c-3.177 0-5.537 2.942-4.849 6.044l7.485 33.681z"/></g><path d="M114.759 229.518a8.829 8.829 0 0 0-8.828 8.828v57.379c0 10.725 10.01 30.897 44.138 30.897s44.138-20.171 44.138-30.897v-57.379a8.829 8.829 0 0 0-8.828-8.828h-70.62z" fill="#f5f5f5"/><g fill="#c8414b"><path d="M150.069 273.656h-44.138v-35.31a8.829 8.829 0 0 1 8.828-8.828h35.31v44.138zM150.069 273.656h44.138v22.069c0 12.189-9.88 22.069-22.069 22.069-12.189 0-22.069-9.88-22.069-22.069v-22.069z"/></g><path d="M105.931 273.656h44.138v22.069c0 12.189-9.88 22.069-22.069 22.069-12.189 0-22.069-9.88-22.069-22.069v-22.069z" fill="#fab446"/><g fill="#c8414b"><path d="M141.241 313.281v-39.625h-8.828v43.693c3.284-.666 6.251-2.12 8.828-4.068zM123.586 317.349v-43.693h-8.828v39.625c2.578 1.948 5.545 3.402 8.828 4.068z"/></g><path fill="#ffb441" d="M114.76 256.001h26.483v8.828H114.76z"/><g fill="#fab446"><path d="M114.76 238.341h26.483v8.828H114.76z"/><path d="M119.17 243.591h17.655v15.992H119.17z"/></g><path fill="#f5f5f5" d="M75.03 238.341h17.655v75.03H75.03z"/><g fill="#fab446"><path d="M70.62 308.971h26.483v8.828H70.62zM70.62 229.521h26.483v8.828H70.62z"/></g><path fill="#5064aa" d="M66.21 317.791h35.31v8.828H66.21z"/><path fill="#fab446" d="M207.45 308.971h26.483v8.828H207.45z"/><path fill="#5064aa" d="M198.62 317.791h35.31v8.828h-35.31z"/><path fill="#fab446" d="M123.59 220.691h52.966v8.828H123.59z"/><path fill="#ffb441" d="M145.66 194.211h8.828v26.483h-8.828z"/><g fill="#f5f5f5"><path d="M141.241 207.449c-7.302 0-13.241-5.94-13.241-13.241 0-7.302 5.94-13.241 13.241-13.241 7.302 0 13.241 5.94 13.241 13.241.001 7.301-5.939 13.241-13.241 13.241zm0-17.655a4.417 4.417 0 0 0-4.414 4.414c0 2.435 1.978 4.414 4.414 4.414s4.414-1.978 4.414-4.414a4.417 4.417 0 0 0-4.414-4.414z"/><path d="M158.897 207.449c-7.302 0-13.241-5.94-13.241-13.241 0-7.302 5.94-13.241 13.241-13.241 7.302 0 13.241 5.94 13.241 13.241s-5.94 13.241-13.241 13.241zm0-17.655a4.417 4.417 0 0 0-4.414 4.414 4.417 4.417 0 0 0 4.414 4.414 4.417 4.417 0 0 0 4.414-4.414 4.418 4.418 0 0 0-4.414-4.414z"/><path d="M176.552 216.277c-7.302 0-13.241-5.94-13.241-13.241 0-7.302 5.94-13.241 13.241-13.241 7.302 0 13.241 5.94 13.241 13.241s-5.94 13.241-13.241 13.241zm0-17.655a4.417 4.417 0 0 0-4.414 4.414 4.417 4.417 0 0 0 4.414 4.414c2.435 0 4.414-1.978 4.414-4.414s-1.979-4.414-4.414-4.414zM123.586 216.277c-7.302 0-13.241-5.94-13.241-13.241 0-7.302 5.94-13.241 13.241-13.241 7.302 0 13.241 5.94 13.241 13.241.001 7.301-5.939 13.241-13.241 13.241zm0-17.655a4.417 4.417 0 0 0-4.414 4.414c0 2.435 1.978 4.414 4.414 4.414s4.414-1.979 4.414-4.415a4.416 4.416 0 0 0-4.414-4.413z"/></g><path d="M176.552 291.311v4.414c0 2.434-1.98 4.414-4.414 4.414s-4.414-1.98-4.414-4.414v-4.414h8.828m8.827-8.827h-26.483v13.241c0 7.302 5.94 13.241 13.241 13.241 7.302 0 13.241-5.94 13.241-13.241v-13.241h.001z" fill="#fab446"/><path d="M172.138 264.829a8.829 8.829 0 0 1-8.828-8.828v-8.828a8.829 8.829 0 0 1 17.656 0v8.828a8.829 8.829 0 0 1-8.828 8.828z" fill="#ffa0d2"/><circle cx="150.07" cy="273.651" r="13.241" fill="#5064aa"/><path fill="#fab446" d="M145.66 176.551h8.828v26.483h-8.828z"/><path d="M123.586 220.691l-8.828-8.828 5.171-5.171a42.627 42.627 0 0 1 60.28 0l5.171 5.171-8.828 8.828h-52.966z" fill="#c8414b"/><g fill="#ffd250"><circle cx="150.07" cy="211.861" r="4.414"/><circle cx="132.41" cy="211.861" r="4.414"/><circle cx="167.72" cy="211.861" r="4.414"/></g><g fill="#c8414b"><path d="M70.62 256.001h44.14v8.828H70.62zM70.621 291.311l26.482-8.827v-8.828l-26.482 8.828z"/></g></symbol><symbol id="sql" viewBox="0 0 1000 1000"><path d="M804.7 990h-610C121 990 61.1 931.1 61.1 858.8V141.2C61.2 68.9 121.1 10 194.7 10h520.5l223 243v605.9c.1 72.2-59.8 131.1-133.5 131.1zm-610-956.8c-60.9 0-110.4 48.5-110.4 108v717.6c0 59.6 49.5 108 110.4 108h610c60.9 0 110.4-48.5 110.4-108V262l-210-228.8H194.7z"/><path d="M713.8 268.1h-23.2V17.7h23.2v250.4z"/><path d="M920.1 268.1H702.2v-23.2h217.9v23.2zM573 617.9c16.3-18.6 24.5-44.5 24.5-77.9 0-34.3-8-60.7-24-79.3-10.6-12.4-43.1-27.9-65.6-27.9-27.3 0-49.4 9.8-66.4 29.5-17 19.7-25.4 45.4-25.4 77.3 0 32.1 8.3 57.8 24.8 77.2 16.5 19.4 38.1 29 64.8 29 28.6 0 51-9.3 67.3-27.9zM28.4 376.7V754h943.2V376.7H28.4zm279.2 275.6c-16.7 12.2-39.8 18.2-69.3 18.2-10.3 0-22.4-1.4-36.2-4.3-13.8-2.8-23.8-6.4-30.1-10.6v-38.1c8 6.9 18.7 12.6 32.1 17.1 13.4 4.5 26.1 6.7 38.1 6.7 36.7 0 55-12.9 55-38.8 0-7.2-2-13.8-5.9-19.6-3.9-5.8-9.3-10.9-16.2-15.4-6.8-4.5-19.8-11.3-38.6-20.6-26.2-12.9-43.5-25-51.8-36.1-8.3-11.1-12.5-23.8-12.5-38.1 0-21.5 8.7-38.6 26.1-51.2 17.4-12.6 39.4-18.9 65.9-18.9 26 0 45 3.1 57.2 9.4v36.5c-15.8-10.8-35.6-16.2-59.7-16.2-16 0-29 3.3-39 10-10.1 6.6-15.1 15.9-15.1 27.7 0 10.5 3.5 19 10.5 25.6 7 6.6 22.1 15.6 45.4 26.9 25.6 12.1 43.6 24.3 53.8 36.5 10.2 12.2 15.3 25.8 15.3 41 0 22.7-8.4 40.1-25 52.3zm331.2 81.1c-8.2 2.6-18.1 3.9-29.6 3.9-16.2 0-31.5-3.9-45.9-11.7-14.5-7.8-34.5-26.1-60-55-35 .2-63.7-12.1-86.3-37-22.5-24.9-33.8-56.1-33.8-93.8 0-42 11.4-75.4 34.2-100 22.8-24.7 54-37 93.6-37 35.7 0 64.6 12.1 86.8 36.3 22.2 24.2 33.3 55.7 33.3 94.5 0 34.5-7.8 63.4-23.5 86.8-15.6 23.4-37.9 38.5-66.7 45.4 14.5 15.6 26.9 26.3 37.1 32 10.2 5.7 21.6 8.6 34.2 8.6 10.4 0 19.2-1.5 26.4-4.5l.2 31.5zm201.3-67.2H702.3V407h33.8v229.5h104v29.7z"/></symbol><symbol id="typescript" viewBox="0 0 256 256" preserveAspectRatio="xMidYMid"><path fill="#007ACC" d="M0 128v128h256V0H0z"/><path d="M56.611 128.85l-.081 10.483h33.32v94.68H113.42v-94.68h33.32v-10.28c0-5.69-.122-10.444-.284-10.566-.122-.162-20.399-.244-44.983-.203l-44.739.122-.122 10.443zM206.567 118.108c6.501 1.626 11.459 4.51 16.01 9.224 2.357 2.52 5.851 7.112 6.136 8.209.08.325-11.053 7.802-17.798 11.987-.244.163-1.22-.894-2.317-2.52-3.291-4.794-6.745-6.867-12.028-7.232-7.76-.529-12.759 3.535-12.718 10.32 0 1.992.284 3.17 1.097 4.796 1.707 3.535 4.876 5.648 14.832 9.955 18.326 7.884 26.168 13.085 31.045 20.48 5.445 8.25 6.664 21.415 2.966 31.208-4.063 10.646-14.14 17.88-28.323 20.277-4.388.772-14.79.65-19.504-.203-10.28-1.829-20.033-6.908-26.047-13.572-2.357-2.601-6.949-9.387-6.664-9.875.122-.162 1.178-.812 2.356-1.503 1.138-.65 5.446-3.13 9.509-5.486l7.355-4.267 1.544 2.276c2.154 3.291 6.867 7.802 9.712 9.305 8.167 4.308 19.383 3.698 24.909-1.26 2.357-2.153 3.332-4.388 3.332-7.68 0-2.966-.366-4.266-1.91-6.5-1.99-2.845-6.054-5.243-17.595-10.24-13.206-5.69-18.895-9.225-24.096-14.833-3.007-3.25-5.852-8.452-7.03-12.8-.975-3.616-1.22-12.678-.447-16.335 2.723-12.76 12.353-21.658 26.25-24.3 4.51-.853 14.994-.528 19.424.57z" fill="#FFF"/></symbol><symbol id="vsc" viewBox="0 0 261 260"><path d="M195.475-.006v223.303L.496 194.337l194.979 65.655 65-27.039V31.064l.021-.01-.021-.042v-3.977l-65-27.04z" fill="#007acc"/><path d="M127.242 38.037L67.522 97.07 31.565 69.992l-14.818 4.95 36.58 36.16-36.58 36.158 14.818 4.95 35.955-27.08h.002l59.717 59.03 35.768-15.197V53.234l-35.766-15.197zm-.002 42.121v61.88l-41.086-30.94 41.086-30.94z" fill="#007acc"/></symbol><symbol id="webpack" viewBox="0 0 1200 1200"><path fill="#fff" d="M600 0l530.3 300v600L600 1200 69.7 900V300z"/><path fill="#8ed6fb" d="M1035.6 879.3l-418.1 236.5V931.6L878 788.3l157.6 91zm28.6-25.9V358.8l-153 88.3V765l153 88.4zm-901.5 25.9l418.1 236.5V931.6L320.3 788.3l-157.6 91zm-28.6-25.9V358.8l153 88.3V765l-153 88.4zM152 326.8L580.8 84.2v178.1L306.1 413.4l-2.1 1.2-152-87.8zm894.3 0L617.5 84.2v178.1l274.7 151.1 2.1 1.2 152-87.8z"/><path fill="#1c78c0" d="M580.8 889.7l-257-141.3v-280l257 148.4v272.9m36.7 0l257-141.3v-280l-257 148.4v272.9M341.2 436l258-141.9 258 141.9-258 149-258-149"/></symbol></svg>